<?xml version="1.0" encoding="UTF-8" standalone="no"?>
<!-- Created with Inkscape (http://www.inkscape.org/) -->

<svg
   xmlns:dc="http://purl.org/dc/elements/1.1/"
   xmlns:cc="http://creativecommons.org/ns#"
   xmlns:rdf="http://www.w3.org/1999/02/22-rdf-syntax-ns#"
   xmlns:svg="http://www.w3.org/2000/svg"
   xmlns="http://www.w3.org/2000/svg"
   xmlns:sodipodi="http://sodipodi.sourceforge.net/DTD/sodipodi-0.dtd"
   xmlns:inkscape="http://www.inkscape.org/namespaces/inkscape"
   width="517.30756"
   height="265.50015"
   id="svg3671"
   version="1.1"
   inkscape:version="0.48.3.1 r9886"
   sodipodi:docname="2x2-resample-b.svg">
  <defs
     id="defs3673" />
  <sodipodi:namedview
     id="base"
     pagecolor="#ffffff"
     bordercolor="#666666"
     borderopacity="1.0"
     inkscape:pageopacity="0.0"
     inkscape:pageshadow="2"
     inkscape:zoom="1.2361222"
     inkscape:cx="261.18877"
     inkscape:cy="137.24822"
     inkscape:document-units="px"
     inkscape:current-layer="layer1"
     showgrid="false"
     fit-margin-top="5"
     fit-margin-left="5"
     fit-margin-right="5"
     fit-margin-bottom="5"
     inkscape:window-width="1024"
     inkscape:window-height="744"
     inkscape:window-x="1366"
     inkscape:window-y="24"
     inkscape:window-maximized="1" />
  <metadata
     id="metadata3676">
    <rdf:RDF>
      <cc:Work
         rdf:about="">
        <dc:format>image/svg+xml</dc:format>
        <dc:type
           rdf:resource="http://purl.org/dc/dcmitype/StillImage" />
        <dc:title></dc:title>
      </cc:Work>
    </rdf:RDF>
  </metadata>
  <g
     inkscape:label="Layer 1"
     inkscape:groupmode="layer"
     id="layer1"
     transform="translate(-99.191253,-268.10367)">
    <path
       inkscape:connector-curvature="0"
       style="fill:#999999;stroke:#000000;stroke-width:1;stroke-miterlimit:4;stroke-dasharray:6, 1;stroke-dashoffset:0"
       d="m 131.16159,407.47632 206.3176,0 m -103.1588,101.02632 0,-202.05262 m -103.1588,131.3342 c 0.83002,0.24386 1.66003,0.4936 2.49004,0.74966 0.83002,0.25607 1.66003,0.51848 2.49004,0.7877 0.83002,0.26921 1.66003,0.54527 2.49004,0.82868 0.83002,0.28341 1.66003,0.57422 2.49004,0.87297 0.83002,0.29876 1.66003,0.60551 2.49004,0.9209 0.83002,0.31538 1.66003,0.63944 2.49004,0.97288 0.83002,0.33344 1.66003,0.67631 2.49004,1.0294 0.83002,0.35308 1.66003,0.71645 2.49004,1.09098 0.83002,0.37453 1.66003,0.76029 2.49004,1.15827 0.83002,0.39799 1.66003,0.80827 2.49004,1.23198 0.83002,0.42371 1.66003,0.86093 2.49004,1.31295 0.83002,0.45202 1.66003,0.91893 2.49004,1.40219 0.83002,0.48326 1.66003,0.98297 2.49004,1.50083 0.83002,0.51785 1.66003,1.05396 2.49004,1.61026 0.83002,0.55631 1.66003,1.13293 2.49004,1.73213 0.83002,0.5992 1.66003,1.2211 2.49004,1.86835 0.83002,0.64726 1.66003,1.32 2.49004,2.02133 0.83002,0.70132 1.66003,1.4314 2.49004,2.19387 0.83002,0.76248 1.66003,1.55753 2.49004,2.38951 0.83002,0.83198 1.66003,1.70109 2.49004,2.61253 0.83002,0.91144 1.66003,1.86544 2.49004,2.8683 0.83002,1.00285 1.66003,2.05482 2.49004,3.16356 0.83002,1.10874 1.66003,2.27457 2.49004,3.5069 0.83001,1.23233 1.66003,2.53153 2.49004,3.90933 0.83001,1.3778 1.66003,2.83462 2.49004,4.38525 0.83001,1.55063 1.66003,3.19556 2.49004,4.9537 0.83001,1.75815 1.66003,3.63007 2.49004,5.64036 0.83001,2.01028 1.66003,4.15959 2.49004,6.48041 0.83001,2.32083 1.66003,4.81394 2.49004,7.52324"
       title="t 0.3/t"
       id="path4985" />
    <rect
       y="306.63678"
       x="130.99425"
       height="201.57385"
       width="207.02179"
       id="rect4317"
       style="fill:#ffffff;stroke:#000000;stroke-width:1;stroke-miterlimit:4;stroke-dasharray:none;stroke-dashoffset:0" />
    <path
       inkscape:connector-curvature="0"
       id="path5231"
       title="t 0.3/t"
       d="m 130.62847,407.20978 207.91696,0 m -103.95848,101.826 0,-203.65198 M 130.62847,437.75758 c 0.83645,0.2458 1.6729,0.49751 2.50935,0.7556 0.83644,0.25809 1.67289,0.52258 2.50934,0.79393 0.83645,0.27135 1.67289,0.54959 2.50934,0.83525 0.83645,0.28565 1.6729,0.57875 2.50934,0.87987 0.83645,0.30112 1.6729,0.61031 2.50935,0.92819 0.83644,0.31788 1.67289,0.6445 2.50934,0.98058 0.83645,0.33608 1.6729,0.68166 2.50934,1.03755 0.83645,0.35588 1.6729,0.72212 2.50935,1.09962 0.83644,0.37749 1.67289,0.7663 2.50934,1.16744 0.83645,0.40113 1.67289,0.81466 2.50934,1.24173 0.83645,0.42706 1.6729,0.86775 2.50934,1.32334 0.83645,0.4556 1.6729,0.9262 2.50935,1.41329 0.83644,0.48708 1.67289,0.99075 2.50934,1.51271 0.83645,0.52195 1.67289,1.0623 2.50934,1.62301 0.83645,0.56071 1.6729,1.14189 2.50934,1.74583 0.83645,0.60394 1.6729,1.23077 2.50935,1.88315 0.83644,0.65238 1.67289,1.33044 2.50934,2.03732 0.83645,0.70688 1.67289,1.44273 2.50934,2.21124 0.83645,0.76851 1.6729,1.56986 2.50934,2.40842 0.83645,0.83857 1.6729,1.71456 2.50935,2.63321 0.83644,0.91866 1.67289,1.88021 2.50934,2.891 0.83645,1.0108 1.67289,2.07109 2.50934,3.18861 0.83645,1.11752 1.6729,2.29257 2.50934,3.53466 0.83645,1.24209 1.6729,2.55157 2.50934,3.94027 0.83645,1.38871 1.6729,2.85706 2.50935,4.41996 0.83644,1.56291 1.67289,3.22086 2.50934,4.99292 0.83645,1.77206 1.6729,3.65881 2.50934,5.685 0.83645,2.0262 1.6729,4.19251 2.50935,6.53171 0.83644,2.3392 1.67289,4.85204 2.50934,7.58279"
       style="fill:#ffffff;stroke:#000000;stroke-width:1;stroke-miterlimit:4;stroke-dasharray:none;stroke-dashoffset:0" />
    <path
       inkscape:connector-curvature="0"
       id="path5683"
       title="t 0.3/t"
       d="m 265.7745,305.91694 c 0.83645,2.71645 1.67289,5.21579 2.50934,7.54309 0.83645,2.3273 1.6729,4.48164 2.50934,6.49751 0.83645,2.01587 1.6729,3.89223 2.50935,5.65524 0.83644,1.76301 1.67289,3.41186 2.50934,4.96678 0.83645,1.55491 1.67289,3.01522 2.50934,4.39681 0.83645,1.3816 1.6729,2.68393 2.50934,3.91965 0.83645,1.23571 1.6729,2.40437 2.50935,3.51615 0.83644,1.11178 1.67289,2.16631 2.50934,3.17191 0.83645,1.0056 1.67289,1.96194 2.50934,2.87587 0.83645,0.91393 1.6729,1.78517 2.50934,2.61942 0.83645,0.83425 1.6729,1.63126 2.50935,2.39581 0.83644,0.76455 1.67289,1.49643 2.50934,2.19966 0.83645,0.70324 1.67289,1.37765 2.50934,2.02666 0.83645,0.64901 1.6729,1.27246 2.50934,1.87329 0.83645,0.60082 1.6729,1.17888 2.50935,1.73669 0.83644,0.55781 1.67289,1.09526 2.50934,1.61452 0.83645,0.51925 1.67289,1.02022 2.50934,1.50479 0.83645,0.48456 1.6729,0.95264 2.50934,1.40588 0.83645,0.45324 1.6729,0.89156 2.50935,1.31642 0.83644,0.42485 1.67289,0.83617 2.50934,1.23523 0.83645,0.39906 1.67289,0.78578 2.50934,1.16132 0.83645,0.37554 1.6729,0.73983 2.50934,1.09387 0.83645,0.35404 1.6729,0.69777 2.50935,1.03211 0.83645,0.33434 1.67289,0.65922 2.50934,0.97545 0.83645,0.31623 1.6729,0.62376 2.50934,0.92332 0.83645,0.29956 1.6729,0.5911 2.50935,0.87528 0.83644,0.28417 1.67289,0.56093 2.50934,0.83087 0.83645,0.26994 1.67289,0.53302 2.50934,0.78977 0.83645,0.25675 1.6729,0.50714 2.50934,0.75164"
       style="fill:#ffffff;stroke:#000000;stroke-width:1;stroke-miterlimit:4;stroke-dasharray:none;stroke-dashoffset:0" />
    <path
       style="fill:none;stroke:#000000;stroke-width:1;stroke-linecap:butt;stroke-linejoin:miter;stroke-miterlimit:4;stroke-opacity:1;stroke-dasharray:6, 1;stroke-dashoffset:0"
       d="M 202.59973,507.43642 C 202.06661,306.45004 202.06661,306.45004 202.06661,306.45004"
       id="path5799"
       inkscape:connector-curvature="0" />
    <path
       style="fill:none;stroke:#000000;stroke-width:1;stroke-linecap:butt;stroke-linejoin:miter;stroke-miterlimit:4;stroke-opacity:1;stroke-dasharray:6, 1;stroke-dashoffset:0"
       d="m 265.50793,306.45004 c 1.59936,200.98638 1.59936,200.98638 1.59936,200.98638"
       id="path5801"
       inkscape:connector-curvature="0" />
    <path
       style="fill:#999999;stroke:#000000;stroke-width:0.53312039;stroke-miterlimit:4;stroke-dasharray:none;stroke-dashoffset:0"
       d="m 131.78007,473.28496 c 0,-20.79327 0.19456,-34.11971 0.49813,-34.11971 1.48879,0 14.06488,4.84161 20.26363,7.8012 20.03922,9.56771 32.96354,22.53402 42.44078,42.57868 2.91745,6.1705 6.63623,15.73743 6.63623,17.07237 0,0.68613 -4.48208,0.78717 -34.91939,0.78717 l -34.91938,0 0,-34.11971 z"
       id="path5803"
       inkscape:connector-curvature="0" />
    <path
       style="fill:#999999;stroke:#000000;stroke-width:0.53312039;stroke-miterlimit:4;stroke-dasharray:none;stroke-dashoffset:0"
       d="m 329.56773,373.09591 c -14.66375,-5.34654 -25.09597,-11.16728 -34.38718,-19.18658 -10.65808,-9.19906 -19.64224,-23.0941 -25.79276,-39.89151 -1.20733,-3.29727 -2.19514,-6.11614 -2.19514,-6.26416 0,-0.14803 15.71372,-0.26913 34.91938,-0.26913 l 34.91939,0 0,33.85314 c 0,31.89594 -0.0539,33.85159 -0.93296,33.8262 -0.51313,-0.0148 -3.45196,-0.94541 -6.53073,-2.06796 l 0,0 z"
       id="path5805"
       inkscape:connector-curvature="0" />
    <text
       xml:space="preserve"
       style="font-size:20px;font-style:normal;font-variant:normal;font-weight:500;font-stretch:normal;line-height:125%;letter-spacing:0px;word-spacing:0px;fill:#000000;fill-opacity:1;stroke:none;font-family:jsMath-cmr10;-inkscape-font-specification:jsMath-cmr10 Medium"
       x="231.38823"
       y="301.11884"
       id="text5807"
       sodipodi:linespacing="125%"><tspan
         sodipodi:role="line"
         id="tspan5809"
         x="231.38823"
         y="301.11884">c</tspan></text>
    <text
       xml:space="preserve"
       style="font-size:20px;font-style:normal;font-variant:normal;font-weight:500;font-stretch:normal;line-height:125%;letter-spacing:0px;word-spacing:0px;fill:#000000;fill-opacity:1;stroke:none;font-family:jsMath-cmr10;-inkscape-font-specification:jsMath-cmr10 Medium"
       x="340.67792"
       y="408.80914"
       id="text5811"
       sodipodi:linespacing="125%"><tspan
         sodipodi:role="line"
         id="tspan5813"
         x="340.67792"
         y="408.80914">a</tspan></text>
    <text
       xml:space="preserve"
       style="font-size:20px;font-style:normal;font-variant:normal;font-weight:500;font-stretch:normal;line-height:125%;letter-spacing:0px;word-spacing:0px;fill:#000000;fill-opacity:1;stroke:none;font-family:jsMath-cmr10;-inkscape-font-specification:jsMath-cmr10 Medium"
       x="127.69469"
       y="528.09882"
       id="text5815"
       sodipodi:linespacing="125%"><tspan
         sodipodi:role="line"
         id="tspan5817"
         x="127.69469"
         y="528.09882">-1</tspan></text>
    <text
       xml:space="preserve"
       style="font-size:20px;font-style:normal;font-variant:normal;font-weight:500;font-stretch:normal;line-height:125%;letter-spacing:0px;word-spacing:0px;fill:#000000;fill-opacity:1;stroke:none;font-family:jsMath-cmr10;-inkscape-font-specification:jsMath-cmr10 Medium"
       x="197.63393"
       y="528.16882"
       id="text5819"
       sodipodi:linespacing="125%"><tspan
         sodipodi:role="line"
         id="tspan5821"
         x="197.63393"
         y="528.16882">-d</tspan></text>
    <text
       xml:space="preserve"
       style="font-size:20px;font-style:normal;font-variant:normal;font-weight:500;font-stretch:normal;line-height:125%;letter-spacing:0px;word-spacing:0px;fill:#000000;fill-opacity:1;stroke:none;font-family:jsMath-cmr10;-inkscape-font-specification:jsMath-cmr10 Medium"
       x="231.52074"
       y="527.98383"
       id="text5823"
       sodipodi:linespacing="125%"><tspan
         sodipodi:role="line"
         id="tspan5825"
         x="231.52074"
         y="527.98383">0</tspan></text>
    <text
       xml:space="preserve"
       style="font-size:20px;font-style:normal;font-variant:normal;font-weight:500;font-stretch:normal;line-height:125%;letter-spacing:0px;word-spacing:0px;fill:#000000;fill-opacity:1;stroke:none;font-family:jsMath-cmr10;-inkscape-font-specification:jsMath-cmr10 Medium"
       x="265.64041"
       y="528.16882"
       id="text5827"
       sodipodi:linespacing="125%"><tspan
         sodipodi:role="line"
         id="tspan5829"
         x="265.64041"
         y="528.16882">d</tspan></text>
    <text
       xml:space="preserve"
       style="font-size:20px;font-style:normal;font-variant:normal;font-weight:500;font-stretch:normal;line-height:125%;letter-spacing:0px;word-spacing:0px;fill:#000000;fill-opacity:1;stroke:none;font-family:jsMath-cmr10;-inkscape-font-specification:jsMath-cmr10 Medium"
       x="335.34671"
       y="528.09882"
       id="text5831"
       sodipodi:linespacing="125%"><tspan
         sodipodi:role="line"
         id="tspan5833"
         x="335.34671"
         y="528.09882">1</tspan></text>
    <text
       xml:space="preserve"
       style="font-size:20px;font-style:normal;font-variant:normal;font-weight:500;font-stretch:normal;line-height:125%;letter-spacing:0px;word-spacing:0px;fill:#000000;fill-opacity:1;stroke:none;font-family:jsMath-cmr10;-inkscape-font-specification:jsMath-cmr10 Medium"
       x="113.03551"
       y="509.70139"
       id="text5835"
       sodipodi:linespacing="125%"><tspan
         sodipodi:role="line"
         id="tspan5837"
         x="113.03551"
         y="509.70139">-1</tspan></text>
    <text
       xml:space="preserve"
       style="font-size:20px;font-style:normal;font-variant:normal;font-weight:500;font-stretch:normal;line-height:125%;letter-spacing:0px;word-spacing:0px;fill:#000000;fill-opacity:1;stroke:none;font-family:jsMath-cmr10;-inkscape-font-specification:jsMath-cmr10 Medium"
       x="116.41043"
       y="410.80914"
       id="text5839"
       sodipodi:linespacing="125%"><tspan
         sodipodi:role="line"
         id="tspan5841"
         x="116.41043"
         y="410.80914">0</tspan></text>
    <text
       xml:space="preserve"
       style="font-size:20px;font-style:normal;font-variant:normal;font-weight:500;font-stretch:normal;line-height:125%;letter-spacing:0px;word-spacing:0px;fill:#000000;fill-opacity:1;stroke:none;font-family:jsMath-cmr10;-inkscape-font-specification:jsMath-cmr10 Medium"
       x="116.36043"
       y="315.5163"
       id="text5843"
       sodipodi:linespacing="125%"><tspan
         sodipodi:role="line"
         id="tspan5845"
         x="116.36043"
         y="315.5163">1</tspan></text>
    <rect
       y="307.2789"
       x="390.86105"
       height="201.57385"
       width="207.02179"
       id="rect4317-3"
       style="fill:#ffffff;stroke:#000000" />
    <path
       inkscape:connector-curvature="0"
       style="fill:#ffffff;stroke:#000000;stroke-width:1;stroke-miterlimit:4;stroke-dasharray:none;stroke-dashoffset:0"
       d="m 390.25809,407.83006 207.91696,0 m -103.95848,101.02631 0,-202.05262 m 31.18755,0 c 0.83644,2.7093 1.67289,5.20207 2.50934,7.52324 0.83645,2.32117 1.67289,4.46985 2.50934,6.48041 0.83645,2.01056 1.6729,3.88198 2.50934,5.64036 0.83645,1.75837 1.6729,3.40288 2.50935,4.9537 0.83644,1.55082 1.67289,3.00729 2.50934,4.38525 0.83645,1.37796 1.67289,2.67686 2.50934,3.90933 0.83645,1.23247 1.6729,2.39804 2.50934,3.5069 0.83645,1.10885 1.6729,2.16061 2.50935,3.16356 0.83644,1.00295 1.67289,1.95678 2.50934,2.8683 0.83645,0.91153 1.67289,1.78048 2.50934,2.61253 0.83645,0.83205 1.6729,1.62697 2.50934,2.38951 0.83645,0.76254 1.6729,1.49249 2.50935,2.19387 0.83644,0.70139 1.67289,1.37402 2.50934,2.02133 0.83645,0.6473 1.67289,1.26911 2.50934,1.86835 0.83645,0.59925 1.6729,1.17578 2.50934,1.73213 0.83645,0.55634 1.6729,1.09237 2.50935,1.61026 0.83644,0.51789 1.67289,1.01754 2.50934,1.50083 0.83645,0.4833 1.67289,0.95014 2.50934,1.40219 0.83645,0.45204 1.6729,0.88921 2.50934,1.31295 0.83645,0.42374 1.6729,0.83397 2.50935,1.23198 0.83644,0.39801 1.67289,0.78372 2.50934,1.15827 0.83645,0.37455 1.67289,0.73788 2.50934,1.09098 0.83645,0.35311 1.6729,0.69595 2.50934,1.0294 0.83645,0.33346 1.6729,0.65748 2.50935,0.97288 0.83644,0.3154 1.67289,0.62213 2.50934,0.9209 0.83645,0.29877 1.67289,0.58954 2.50934,0.87297 0.83645,0.28342 1.6729,0.55945 2.50934,0.82868 0.83645,0.26923 1.6729,0.53162 2.50935,0.7877 0.83644,0.25607 1.67289,0.5058 2.50934,0.74966"
       title="t 0.3/t"
       id="path5989" />
    <path
       inkscape:connector-curvature="0"
       id="path6269"
       title="t -0.3/t"
       d="m 390.25809,407.8301 207.38383,0 M 493.95,509.38954 l 0,-203.11887 m 31.10758,203.11887 c 0.8343,-2.7236 1.66861,-5.22952 2.50291,-7.56294 0.8343,-2.33342 1.6686,-4.49344 2.50291,-6.51461 0.8343,-2.02117 1.6686,-3.90247 2.50291,-5.67012 0.8343,-1.76765 1.6686,-3.42084 2.5029,-4.97985 0.83431,-1.559 1.66861,-3.02316 2.50291,-4.40839 0.8343,-1.38523 1.66861,-2.69099 2.50291,-3.92996 0.8343,-1.23896 1.66861,-2.41069 2.50291,-3.5254 0.8343,-1.11471 1.6686,-2.17202 2.50291,-3.18026 0.8343,-1.00824 1.6686,-1.9671 2.5029,-2.88344 0.83431,-0.91633 1.66861,-1.78987 2.50291,-2.62631 0.83431,-0.83644 1.66861,-1.63555 2.50291,-2.40212 0.8343,-0.76656 1.66861,-1.50036 2.50291,-2.20545 0.8343,-0.70508 1.66861,-1.38127 2.50291,-2.03199 0.8343,-0.65072 1.6686,-1.27581 2.50291,-1.87822 0.8343,-0.6024 1.6686,-1.18198 2.5029,-1.74126 0.83431,-0.55928 1.66861,-1.09814 2.50291,-1.61876 0.83431,-0.52063 1.66861,-1.02291 2.50291,-1.50875 0.8343,-0.48585 1.66861,-0.95515 2.50291,-1.40959 0.8343,-0.45443 1.6686,-0.8939 2.50291,-1.31988 0.8343,-0.42597 1.6686,-0.83837 2.50291,-1.23848 0.8343,-0.40011 1.6686,-0.78785 2.5029,-1.16438 0.83431,-0.37653 1.66861,-0.74177 2.50291,-1.09674 0.8343,-0.35498 1.66861,-0.69962 2.50291,-1.03483 0.8343,-0.33522 1.66861,-0.66095 2.50291,-0.97802 0.8343,-0.31706 1.6686,-0.62541 2.50291,-0.92575 0.8343,-0.30035 1.6686,-0.59266 2.50291,-0.87758 0.8343,-0.28492 1.6686,-0.56241 2.5029,-0.83306 0.83431,-0.27065 1.66861,-0.53442 2.50291,-0.79185 0.8343,-0.25742 1.66861,-0.50847 2.50291,-0.75362"
       style="fill:#ffffff;stroke:#000000;stroke-width:1;stroke-miterlimit:4;stroke-dasharray:none;stroke-dashoffset:0" />
    <rect
       style="fill:#ffffff;stroke:#000000;stroke-width:1;stroke-miterlimit:4;stroke-dasharray:none;stroke-dashoffset:0"
       id="rect6967"
       width="207.38383"
       height="202.05263"
       x="390.79123"
       y="306.80374" />
    <path
       inkscape:connector-curvature="0"
       style="fill:#ffffff;stroke:#000000;stroke-width:1;stroke-miterlimit:4;stroke-dasharray:none;stroke-dashoffset:0"
       d="m 390.79123,408.09665 207.91696,0 m -103.95848,101.826 0,-203.65198 M 390.79123,438.64445 c 0.83645,0.2458 1.6729,0.49751 2.50934,0.7556 0.83645,0.25809 1.6729,0.52258 2.50935,0.79393 0.83644,0.27135 1.67289,0.54959 2.50934,0.83525 0.83645,0.28565 1.67289,0.57875 2.50934,0.87987 0.83645,0.30112 1.6729,0.61031 2.50934,0.92819 0.83645,0.31788 1.6729,0.6445 2.50935,0.98058 0.83644,0.33608 1.67289,0.68166 2.50934,1.03755 0.83645,0.35588 1.67289,0.72212 2.50934,1.09962 0.83645,0.37749 1.6729,0.7663 2.50934,1.16744 0.83645,0.40113 1.6729,0.81466 2.50935,1.24173 0.83644,0.42706 1.67289,0.86775 2.50934,1.32334 0.83645,0.4556 1.67289,0.9262 2.50934,1.41329 0.83645,0.48708 1.6729,0.99075 2.50934,1.51271 0.83645,0.52195 1.6729,1.0623 2.50935,1.62301 0.83644,0.56071 1.67289,1.14189 2.50934,1.74583 0.83645,0.60394 1.67289,1.23077 2.50934,1.88315 0.83645,0.65238 1.6729,1.33044 2.50934,2.03732 0.83645,0.70688 1.6729,1.44273 2.50935,2.21124 0.83644,0.76851 1.67289,1.56986 2.50934,2.40842 0.83645,0.83857 1.67289,1.71456 2.50934,2.63321 0.83645,0.91866 1.6729,1.88021 2.50934,2.891 0.83645,1.0108 1.6729,2.07109 2.50935,3.18861 0.83644,1.11752 1.67289,2.29257 2.50934,3.53466 0.83645,1.24209 1.67289,2.55157 2.50934,3.94027 0.83645,1.38871 1.6729,2.85706 2.50934,4.41996 0.83645,1.56291 1.6729,3.22086 2.50935,4.99292 0.83644,1.77206 1.67289,3.65881 2.50934,5.685 0.83645,2.0262 1.67289,4.19251 2.50934,6.53171 0.83645,2.3392 1.6729,4.85204 2.50934,7.58279"
       title="t 0.3/t"
       id="path7393" />
    <path
       inkscape:connector-curvature="0"
       style="fill:#ffffff;stroke:#000000;stroke-width:1;stroke-miterlimit:4;stroke-dasharray:none;stroke-dashoffset:0"
       d="m 390.79123,407.5635 207.38383,0 m -103.69192,100.75976 0,-201.51951 M 390.79123,437.79143 c 0.8343,0.24322 1.66861,0.4923 2.50291,0.74769 0.8343,0.25538 1.6686,0.5171 2.50291,0.78561 0.8343,0.2685 1.6686,0.54384 2.5029,0.8265 0.83431,0.28266 1.66861,0.5727 2.50291,0.87066 0.83431,0.29797 1.66861,0.60392 2.50291,0.91847 0.8343,0.31455 1.66861,0.63776 2.50291,0.97031 0.8343,0.33256 1.66861,0.67453 2.50291,1.02669 0.8343,0.35215 1.6686,0.71456 2.50291,1.0881 0.8343,0.37354 1.6686,0.75828 2.5029,1.15522 0.83431,0.39693 1.66861,0.80613 2.50291,1.22872 0.83431,0.4226 1.66861,0.85867 2.50291,1.30949 0.8343,0.45083 1.66861,0.9165 2.50291,1.39849 0.8343,0.48198 1.6686,0.98038 2.50291,1.49687 0.8343,0.51649 1.6686,1.05118 2.50291,1.60602 0.8343,0.55483 1.6686,1.12993 2.5029,1.72755 0.83431,0.59762 1.66861,1.21788 2.50291,1.86343 0.8343,0.64554 1.66861,1.31651 2.50291,2.01599 0.8343,0.69947 1.66861,1.42762 2.50291,2.18808 0.8343,0.76046 1.6686,1.55342 2.50291,2.38321 0.8343,0.82978 1.6686,1.6966 2.50291,2.60563 0.8343,0.90903 1.6686,1.86052 2.5029,2.86073 0.83431,1.00021 1.66861,2.0494 2.50291,3.15522 0.8343,1.10582 1.66861,2.26857 2.50291,3.49765 0.8343,1.22908 1.66861,2.52485 2.50291,3.89901 0.8343,1.37416 1.6686,2.82714 2.50291,4.37368 0.8343,1.54654 1.6686,3.18713 2.5029,4.94063 0.83431,1.75351 1.66861,3.6205 2.50291,5.62548 0.83431,2.00498 1.66861,4.14861 2.50291,6.46331 0.8343,2.3147 1.66861,4.80123 2.50291,7.50339"
       title="t 0.3/t"
       id="path8525" />
    <path
       inkscape:connector-curvature="0"
       id="path8813"
       title="t -0.3/t"
       d="m 390.79123,407.83006 207.38383,0 m -103.69192,101.02631 0,-202.05262 m -103.69191,70.71842 c 0.8343,-0.24386 1.66861,-0.4936 2.50291,-0.74966 0.8343,-0.25607 1.6686,-0.51848 2.50291,-0.7877 0.8343,-0.26921 1.6686,-0.54527 2.5029,-0.82868 0.83431,-0.28341 1.66861,-0.57422 2.50291,-0.87297 0.83431,-0.29876 1.66861,-0.60551 2.50291,-0.9209 0.8343,-0.31538 1.66861,-0.63944 2.50291,-0.97288 0.8343,-0.33344 1.66861,-0.67631 2.50291,-1.0294 0.8343,-0.35308 1.6686,-0.71645 2.50291,-1.09098 0.8343,-0.37453 1.6686,-0.76029 2.5029,-1.15827 0.83431,-0.39799 1.66861,-0.80827 2.50291,-1.23198 0.83431,-0.42371 1.66861,-0.86093 2.50291,-1.31295 0.8343,-0.45202 1.66861,-0.91893 2.50291,-1.40219 0.8343,-0.48326 1.6686,-0.98297 2.50291,-1.50083 0.8343,-0.51785 1.6686,-1.05396 2.50291,-1.61026 0.8343,-0.55631 1.6686,-1.13293 2.5029,-1.73213 0.83431,-0.5992 1.66861,-1.2211 2.50291,-1.86835 0.8343,-0.64726 1.66861,-1.32 2.50291,-2.02133 0.8343,-0.70132 1.66861,-1.4314 2.50291,-2.19387 0.8343,-0.76248 1.6686,-1.55753 2.50291,-2.38951 0.8343,-0.83198 1.6686,-1.70109 2.50291,-2.61253 0.8343,-0.91144 1.6686,-1.86544 2.5029,-2.8683 0.83431,-1.00285 1.66861,-2.05482 2.50291,-3.16356 0.8343,-1.10874 1.66861,-2.27457 2.50291,-3.5069 0.8343,-1.23233 1.66861,-2.53153 2.50291,-3.90933 0.8343,-1.3778 1.6686,-2.83462 2.50291,-4.38525 0.8343,-1.55063 1.6686,-3.19556 2.5029,-4.9537 0.83431,-1.75815 1.66861,-3.63007 2.50291,-5.64036 0.83431,-2.01028 1.66861,-4.15959 2.50291,-6.48041 0.8343,-2.32083 1.66861,-4.81394 2.50291,-7.52324"
       style="fill:#ffffff;stroke:#000000;stroke-width:1;stroke-miterlimit:4;stroke-dasharray:none;stroke-dashoffset:0" />
    <path
       inkscape:connector-curvature="0"
       style="fill:#ffffff;stroke:#000000;stroke-width:1;stroke-miterlimit:4;stroke-dasharray:none;stroke-dashoffset:0"
       d="m 525.40412,509.38954 c 0.83644,-2.7236 1.67289,-5.22952 2.50934,-7.56294 0.83645,-2.33342 1.67289,-4.49344 2.50934,-6.51461 0.83645,-2.02117 1.6729,-3.90247 2.50934,-5.67012 0.83645,-1.76765 1.6729,-3.42084 2.50935,-4.97985 0.83644,-1.559 1.67289,-3.02316 2.50934,-4.40839 0.83645,-1.38523 1.67289,-2.69099 2.50934,-3.92996 0.83645,-1.23896 1.6729,-2.41069 2.50934,-3.5254 0.83645,-1.11471 1.6729,-2.17202 2.50935,-3.18026 0.83644,-1.00824 1.67289,-1.9671 2.50934,-2.88344 0.83645,-0.91633 1.67289,-1.78987 2.50934,-2.62631 0.83645,-0.83644 1.6729,-1.63555 2.50934,-2.40212 0.83645,-0.76656 1.6729,-1.50036 2.50935,-2.20545 0.83644,-0.70508 1.67289,-1.38127 2.50934,-2.03199 0.83645,-0.65072 1.67289,-1.27581 2.50934,-1.87822 0.83645,-0.6024 1.6729,-1.18198 2.50934,-1.74126 0.83645,-0.55928 1.6729,-1.09814 2.50935,-1.61876 0.83644,-0.52063 1.67289,-1.02291 2.50934,-1.50875 0.83645,-0.48585 1.67289,-0.95515 2.50934,-1.40959 0.83645,-0.45443 1.6729,-0.8939 2.50934,-1.31988 0.83645,-0.42597 1.6729,-0.83837 2.50935,-1.23848 0.83644,-0.40011 1.67289,-0.78785 2.50934,-1.16438 0.83645,-0.37653 1.67289,-0.74177 2.50934,-1.09674 0.83645,-0.35498 1.6729,-0.69962 2.50934,-1.03483 0.83645,-0.33522 1.6729,-0.66095 2.50935,-0.97802 0.83644,-0.31706 1.67289,-0.62541 2.50934,-0.92575 0.83645,-0.30035 1.67289,-0.59266 2.50934,-0.87758 0.83645,-0.28492 1.6729,-0.56241 2.50934,-0.83306 0.83645,-0.27065 1.6729,-0.53442 2.50935,-0.79185 0.83644,-0.25742 1.67289,-0.50847 2.50934,-0.75362"
       title="t -0.3/t"
       id="path9103" />
    <path
       inkscape:connector-curvature="0"
       id="path9395"
       title="t 0.3/t"
       d="m 525.2442,306.80375 c 0.83216,2.7236 1.66432,5.22952 2.49647,7.56294 0.83216,2.33342 1.66432,4.49344 2.49648,6.51461 0.83216,2.02117 1.66431,3.90247 2.49647,5.67012 0.83216,1.76765 1.66432,3.42084 2.49648,4.97985 0.83215,1.559 1.66431,3.02316 2.49647,4.40839 0.83216,1.38523 1.66432,2.69099 2.49647,3.92996 0.83216,1.23896 1.66432,2.41069 2.49648,3.5254 0.83216,1.11471 1.66431,2.17202 2.49647,3.18026 0.83216,1.00824 1.66432,1.9671 2.49648,2.88344 0.83215,0.91633 1.66431,1.78987 2.49647,2.62631 0.83216,0.83644 1.66432,1.63555 2.49648,2.40212 0.83215,0.76656 1.66431,1.50036 2.49647,2.20545 0.83216,0.70508 1.66432,1.38127 2.49647,2.03199 0.83216,0.65072 1.66432,1.27581 2.49648,1.87822 0.83216,0.6024 1.66431,1.18198 2.49647,1.74126 0.83216,0.55928 1.66432,1.09814 2.49648,1.61876 0.83215,0.52063 1.66431,1.02291 2.49647,1.50875 0.83216,0.48585 1.66432,0.95515 2.49647,1.40959 0.83216,0.45443 1.66432,0.8939 2.49648,1.31988 0.83216,0.42597 1.66431,0.83837 2.49647,1.23848 0.83216,0.40011 1.66432,0.78785 2.49648,1.16438 0.83215,0.37653 1.66431,0.74177 2.49647,1.09674 0.83216,0.35498 1.66432,0.69962 2.49648,1.03483 0.83215,0.33522 1.66431,0.66095 2.49647,0.97802 0.83216,0.31706 1.66432,0.62541 2.49647,0.92575 0.83216,0.30035 1.66432,0.59266 2.49648,0.87758 0.83216,0.28492 1.66431,0.56241 2.49647,0.83306 0.83216,0.27065 1.66432,0.53442 2.49648,0.79185 0.83215,0.25742 1.66431,0.50847 2.49647,0.75362"
       style="fill:#ffffff;stroke:#000000;stroke-width:1;stroke-miterlimit:4;stroke-dasharray:none;stroke-dashoffset:0" />
    <path
       style="fill:none;stroke:#000000;stroke-width:1;stroke-linecap:butt;stroke-linejoin:miter;stroke-miterlimit:4;stroke-opacity:1;stroke-dasharray:6, 1;stroke-dashoffset:0"
       d="m 463.82872,306.27065 c -0.53312,201.51951 0,202.05263 0,202.05263"
       id="path9541"
       inkscape:connector-curvature="0" />
    <path
       style="fill:none;stroke:#000000;stroke-width:1;stroke-linecap:butt;stroke-linejoin:miter;stroke-miterlimit:4;stroke-opacity:1;stroke-dasharray:6, 1;stroke-dashoffset:0"
       d="M 525.67069,509.92264 C 525.13757,306.27065 525.13757,306.27065 525.13757,306.27065"
       id="path9543"
       inkscape:connector-curvature="0" />
    <path
       style="fill:#999999;stroke:#000000;stroke-width:0.53312039;stroke-miterlimit:4;stroke-dasharray:3.19872242, 0.5331204;stroke-dashoffset:0"
       d="m 391.45089,392.39069 0.14199,-14.1918 7.99681,-2.7514 c 31.68983,-10.90327 49.6708,-28.28947 61.53077,-59.49547 l 2.12746,-5.59776 0.0249,4.6648 c 0.0145,2.7379 0.24504,4.6648 0.55795,4.6648 0.32451,0 0.53312,-2.39904 0.53312,-6.13088 l 0,-6.13089 14.66081,0 14.66081,0 0,49.5802 0,49.58019 -14.66081,0 -14.66081,0 0,-1.3328 c 0,-0.8293 -0.30211,-1.3328 -0.79969,-1.3328 -0.49757,0 -0.79968,0.5035 -0.79968,1.3328 l 0,1.3328 -35.72777,0 -35.72778,0 0.14199,-14.19179 -2e-5,0 z m 72.91292,7.79434 c 0,-2.48789 -0.1777,-3.19871 -0.79968,-3.19871 -0.62197,0 -0.79968,0.71082 -0.79968,3.19871 0,2.4879 0.17771,3.19873 0.79968,3.19873 0.62198,0 0.79968,-0.71083 0.79968,-3.19873 z m 0,-6.93055 c 0,-2.4879 -0.1777,-3.19872 -0.79968,-3.19872 -0.62197,0 -0.79968,0.71082 -0.79968,3.19872 0,2.4879 0.17771,3.19872 0.79968,3.19872 0.62198,0 0.79968,-0.71082 0.79968,-3.19872 z m 0,-6.93057 c 0,-2.48789 -0.1777,-3.19872 -0.79968,-3.19872 -0.62197,0 -0.79968,0.71083 -0.79968,3.19872 0,2.4879 0.17771,3.19873 0.79968,3.19873 0.62198,0 0.79968,-0.71083 0.79968,-3.19873 z m 0,-6.93056 c 0,-2.4879 -0.1777,-3.19872 -0.79968,-3.19872 -0.62197,0 -0.79968,0.71082 -0.79968,3.19872 0,2.48789 0.17771,3.19872 0.79968,3.19872 0.62198,0 0.79968,-0.71083 0.79968,-3.19872 z m 0,-6.93057 c 0,-2.48789 -0.1777,-3.19872 -0.79968,-3.19872 -0.62197,0 -0.79968,0.71083 -0.79968,3.19872 0,2.4879 0.17771,3.19872 0.79968,3.19872 0.62198,0 0.79968,-0.71082 0.79968,-3.19872 z m 0,-7.19712 c 0,-2.72484 -0.17087,-3.46529 -0.79968,-3.46529 -0.62881,0 -0.79968,0.74045 -0.79968,3.46529 0,2.72483 0.17087,3.46528 0.79968,3.46528 0.62881,0 0.79968,-0.74045 0.79968,-3.46528 z m 0,-7.19713 c 0,-2.48789 -0.1777,-3.19872 -0.79968,-3.19872 -0.62197,0 -0.79968,0.71083 -0.79968,3.19872 0,2.4879 0.17771,3.19872 0.79968,3.19872 0.62198,0 0.79968,-0.71082 0.79968,-3.19872 z m 0,-6.93056 c 0,-2.4879 -0.1777,-3.19873 -0.79968,-3.19873 -0.62197,0 -0.79968,0.71083 -0.79968,3.19873 0,2.48789 0.17771,3.19872 0.79968,3.19872 0.62198,0 0.79968,-0.71083 0.79968,-3.19872 z m 0,-6.93057 c 0,-2.48789 -0.1777,-3.19872 -0.79968,-3.19872 -0.62197,0 -0.79968,0.71083 -0.79968,3.19872 0,2.4879 0.17771,3.19872 0.79968,3.19872 0.62198,0 0.79968,-0.71082 0.79968,-3.19872 z m 0,-6.93056 c 0,-1.77707 -0.23694,-3.19873 -0.53312,-3.19873 -0.29618,0 -0.53312,1.42166 -0.53312,3.19873 0,1.77706 0.23694,3.19872 0.53312,3.19872 0.29618,0 0.53312,-1.42166 0.53312,-3.19872 z m 0,-6.93057 c 0,-1.77707 -0.23694,-3.19872 -0.53312,-3.19872 -0.29618,0 -0.53312,1.42165 -0.53312,3.19872 0,1.77707 0.23694,3.19872 0.53312,3.19872 0.29618,0 0.53312,-1.42165 0.53312,-3.19872 z m 0,-6.93056 c 0,-1.77707 -0.23694,-3.19873 -0.53312,-3.19873 -0.29618,0 -0.53312,1.42166 -0.53312,3.19873 0,1.77706 0.23694,3.19872 0.53312,3.19872 0.29618,0 0.53312,-1.42166 0.53312,-3.19872 z"
       id="path9545"
       inkscape:connector-curvature="0" />
    <path
       style="fill:#999999;stroke:#000000;stroke-width:0.53312039;stroke-miterlimit:4;stroke-dasharray:3.19872242, 0.5331204;stroke-dashoffset:0"
       d="m 464.36381,504.94319 c 0,-2.25095 -0.18578,-2.93216 -0.79968,-2.93216 -0.43982,0 -0.80681,0.29988 -0.81553,0.6664 -0.009,0.36652 -1.10071,-2.08352 -2.42665,-5.44454 -11.73439,-29.74462 -29.67749,-46.69816 -60.73226,-57.38294 l -7.99681,-2.75139 -0.14199,-14.1918 -0.14199,-14.1918 35.72778,0 c 31.4026,0 35.72777,0.0968 35.72777,0.79968 0,0.43982 0.35986,0.79968 0.79968,0.79968 0.43983,0 0.79968,-0.35986 0.79968,-0.79968 0,-0.69144 1.9844,-0.79968 14.66082,-0.79968 l 14.66081,0 0,49.5802 0,49.58019 -14.66081,0 -14.66082,0 0,-2.93216 z m 0,-6.664 c 0,-2.4879 -0.1777,-3.19872 -0.79968,-3.19872 -0.62197,0 -0.79968,0.71082 -0.79968,3.19872 0,2.48789 0.17771,3.19872 0.79968,3.19872 0.62198,0 0.79968,-0.71083 0.79968,-3.19872 z m 0,-6.93057 c 0,-2.48789 -0.1777,-3.19872 -0.79968,-3.19872 -0.62197,0 -0.79968,0.71083 -0.79968,3.19872 0,2.4879 0.17771,3.19872 0.79968,3.19872 0.62198,0 0.79968,-0.71082 0.79968,-3.19872 z m 0,-6.93056 c 0,-2.4879 -0.1777,-3.19873 -0.79968,-3.19873 -0.62197,0 -0.79968,0.71083 -0.79968,3.19873 0,2.48789 0.17771,3.19872 0.79968,3.19872 0.62198,0 0.79968,-0.71083 0.79968,-3.19872 z m 0,-10.66241 c 0,-5.80509 -0.12986,-6.93057 -0.79968,-6.93057 -0.66981,0 -0.79968,1.12548 -0.79968,6.93057 0,5.80509 0.12987,6.93056 0.79968,6.93056 0.66982,0 0.79968,-1.12547 0.79968,-6.93056 z m 0,-10.66241 c 0,-2.48789 -0.1777,-3.19872 -0.79968,-3.19872 -0.62197,0 -0.79968,0.71083 -0.79968,3.19872 0,2.4879 0.17771,3.19872 0.79968,3.19872 0.62198,0 0.79968,-0.71082 0.79968,-3.19872 z m 0,-6.93056 c 0,-2.4879 -0.1777,-3.19873 -0.79968,-3.19873 -0.62197,0 -0.79968,0.71083 -0.79968,3.19873 0,2.48789 0.17771,3.19872 0.79968,3.19872 0.62198,0 0.79968,-0.71083 0.79968,-3.19872 z m 0,-6.93057 c 0,-2.48789 -0.1777,-3.19872 -0.79968,-3.19872 -0.62197,0 -0.79968,0.71083 -0.79968,3.19872 0,2.4879 0.17771,3.19872 0.79968,3.19872 0.62198,0 0.79968,-0.71082 0.79968,-3.19872 z m 0,-6.93056 c 0,-2.4879 -0.1777,-3.19873 -0.79968,-3.19873 -0.62197,0 -0.79968,0.71083 -0.79968,3.19873 0,2.48789 0.17771,3.19872 0.79968,3.19872 0.62198,0 0.79968,-0.71083 0.79968,-3.19872 z m 0,-6.93057 c 0,-2.4879 -0.1777,-3.19872 -0.79968,-3.19872 -0.62197,0 -0.79968,0.71082 -0.79968,3.19872 0,2.4879 0.17771,3.19872 0.79968,3.19872 0.62198,0 0.79968,-0.71082 0.79968,-3.19872 z m 0,-6.93057 c 0,-2.48789 -0.1777,-3.19872 -0.79968,-3.19872 -0.62197,0 -0.79968,0.71083 -0.79968,3.19872 0,2.4879 0.17771,3.19873 0.79968,3.19873 0.62198,0 0.79968,-0.71083 0.79968,-3.19873 z m 0,-10.6624 c 0,-5.80509 -0.12986,-6.93057 -0.79968,-6.93057 -0.66981,0 -0.79968,1.12548 -0.79968,6.93057 0,5.80509 0.12987,6.93056 0.79968,6.93056 0.66982,0 0.79968,-1.12547 0.79968,-6.93056 z"
       id="path9547"
       inkscape:connector-curvature="0" />
    <path
       style="fill:#999999;stroke:#000000;stroke-width:0.53312039;stroke-miterlimit:4;stroke-dasharray:3.19872242, 0.5331204;stroke-dashoffset:0"
       d="m 495.2848,458.29516 0,-49.5802 14.66081,0 14.66081,0 0,5.3312 c 0,4.48488 0.13263,5.33121 0.83545,5.33121 0.68353,0 0.82159,-0.65436 0.75923,-3.59856 -0.0419,-1.97921 -0.058,-4.37826 -0.0358,-5.33121 l 0.0405,-1.73264 35.72764,0 35.72763,0 -0.14185,14.45403 -0.14185,14.45404 -6.664,2.25818 c -24.87144,8.42799 -41.69004,20.83164 -52.79903,38.93908 -2.85444,4.65268 -8.49589,16.40551 -10.17211,21.19154 -0.69318,1.97921 -1.56236,3.59856 -1.9315,3.59856 -0.42762,0 -0.67117,0.77383 -0.67117,2.13248 l 0,2.13248 -14.92737,0 -14.92737,0 0,-49.58019 z m 30.92098,41.58339 c 0,-1.77707 -0.23694,-3.19872 -0.53312,-3.19872 -0.29618,0 -0.53312,1.42165 -0.53312,3.19872 0,1.77707 0.23694,3.19872 0.53312,3.19872 0.29618,0 0.53312,-1.42165 0.53312,-3.19872 z m 0,-6.93057 c 0,-2.48789 -0.17771,-3.19872 -0.79968,-3.19872 -0.84613,0 -1.09849,2.82907 -0.46366,5.19793 0.60309,2.25042 1.26334,1.20559 1.26334,-1.99921 z m 0,-6.93056 c 0,-2.4879 -0.17771,-3.19872 -0.79968,-3.19872 -0.62197,0 -0.79968,0.71082 -0.79968,3.19872 0,2.4879 0.17771,3.19872 0.79968,3.19872 0.62197,0 0.79968,-0.71082 0.79968,-3.19872 z m 0,-6.93057 c 0,-2.48789 -0.17771,-3.19872 -0.79968,-3.19872 -0.62197,0 -0.79968,0.71083 -0.79968,3.19872 0,2.4879 0.17771,3.19873 0.79968,3.19873 0.62197,0 0.79968,-0.71083 0.79968,-3.19873 z m 0,-10.6624 c 0,-5.80509 -0.12986,-6.93057 -0.79968,-6.93057 -0.66982,0 -0.79968,1.12548 -0.79968,6.93057 0,5.80508 0.12986,6.93056 0.79968,6.93056 0.66982,0 0.79968,-1.12548 0.79968,-6.93056 z m 0,-10.66241 c 0,-2.4879 -0.17771,-3.19873 -0.79968,-3.19873 -0.62197,0 -0.79968,0.71083 -0.79968,3.19873 0,2.48789 0.17771,3.19872 0.79968,3.19872 0.62197,0 0.79968,-0.71083 0.79968,-3.19872 z m 0,-6.93057 c 0,-2.48789 -0.17771,-3.19872 -0.79968,-3.19872 -0.62197,0 -0.79968,0.71083 -0.79968,3.19872 0,2.4879 0.17771,3.19872 0.79968,3.19872 0.62197,0 0.79968,-0.71082 0.79968,-3.19872 z m 0,-6.93056 c 0,-2.4879 -0.17771,-3.19873 -0.79968,-3.19873 -0.62197,0 -0.79968,0.71083 -0.79968,3.19873 0,2.48789 0.17771,3.19872 0.79968,3.19872 0.62197,0 0.79968,-0.71083 0.79968,-3.19872 z m 0,-6.93057 c 0,-2.48789 -0.17771,-3.19872 -0.79968,-3.19872 -0.62197,0 -0.79968,0.71083 -0.79968,3.19872 0,2.4879 0.17771,3.19872 0.79968,3.19872 0.62197,0 0.79968,-0.71082 0.79968,-3.19872 z m 0,-6.93056 c 0,-2.4879 -0.17771,-3.19873 -0.79968,-3.19873 -0.62197,0 -0.79968,0.71083 -0.79968,3.19873 0,2.48789 0.17771,3.19872 0.79968,3.19872 0.62197,0 0.79968,-0.71083 0.79968,-3.19872 z m 0,-6.93057 c 0,-2.48789 -0.17771,-3.19872 -0.79968,-3.19872 -0.62197,0 -0.79968,0.71083 -0.79968,3.19872 0,2.4879 0.17771,3.19872 0.79968,3.19872 0.62197,0 0.79968,-0.71082 0.79968,-3.19872 z"
       id="path9549"
       inkscape:connector-curvature="0" />
    <path
       style="fill:#999999;stroke:#000000;stroke-width:0.53312039;stroke-miterlimit:4;stroke-dasharray:3.19872242, 0.5331204;stroke-dashoffset:0"
       d="m 495.2848,357.00229 0,-49.5802 14.66081,0 14.66081,0 0,3.46529 c 0,1.95477 0.23239,3.46528 0.53312,3.46528 0.29322,0 0.5426,-0.65974 0.55419,-1.46608 0.0135,-0.93872 0.86991,0.72141 2.38085,4.61518 12.05921,31.07726 29.91774,47.89286 62.63877,58.98071 l 6.664,2.25816 0.14213,13.92093 0.14214,13.92092 -35.72792,0 c -23.4632,0 -35.72792,-0.18301 -35.72792,-0.53312 0,-0.29322 -0.35986,-0.53312 -0.79968,-0.53312 -0.43982,0 -0.79968,0.2399 -0.79968,0.53312 0,0.34249 -5.24235,0.53312 -14.66081,0.53312 l -14.66081,0 0,-49.58019 z m 30.92098,44.7821 c 0,-2.48789 -0.17771,-3.19872 -0.79968,-3.19872 -0.62197,0 -0.79968,0.71083 -0.79968,3.19872 0,2.4879 0.17771,3.19873 0.79968,3.19873 0.62197,0 0.79968,-0.71083 0.79968,-3.19873 z m 0,-6.93055 c 0,-2.4879 -0.17771,-3.19872 -0.79968,-3.19872 -0.62197,0 -0.79968,0.71082 -0.79968,3.19872 0,2.48789 0.17771,3.19871 0.79968,3.19871 0.62197,0 0.79968,-0.71082 0.79968,-3.19871 z m 0,-6.93057 c 0,-2.48789 -0.17771,-3.19872 -0.79968,-3.19872 -0.62197,0 -0.79968,0.71083 -0.79968,3.19872 0,2.4879 0.17771,3.19873 0.79968,3.19873 0.62197,0 0.79968,-0.71083 0.79968,-3.19873 z m 0,-6.93056 c 0,-2.4879 -0.17771,-3.19872 -0.79968,-3.19872 -0.62197,0 -0.79968,0.71082 -0.79968,3.19872 0,2.4879 0.17771,3.19872 0.79968,3.19872 0.62197,0 0.79968,-0.71082 0.79968,-3.19872 z m 0,-6.93057 c 0,-2.48789 -0.17771,-3.19872 -0.79968,-3.19872 -0.62197,0 -0.79968,0.71083 -0.79968,3.19872 0,2.4879 0.17771,3.19873 0.79968,3.19873 0.62197,0 0.79968,-0.71083 0.79968,-3.19873 z m -0.0368,-10.6624 c 0.003,-5.74236 -0.13034,-6.93057 -0.77933,-6.93057 -0.64878,0 -0.78327,1.19 -0.78327,6.93057 0,5.72466 0.1356,6.93056 0.77933,6.93056 0.64353,0 0.78002,-1.2077 0.78327,-6.93056 l 0,0 z m 0.0368,-10.66241 c 0,-2.4879 -0.17771,-3.19872 -0.79968,-3.19872 -0.62197,0 -0.79968,0.71082 -0.79968,3.19872 0,2.48789 0.17771,3.19872 0.79968,3.19872 0.62197,0 0.79968,-0.71083 0.79968,-3.19872 z m 0,-6.93057 c 0,-2.48789 -0.17771,-3.19872 -0.79968,-3.19872 -0.62197,0 -0.79968,0.71083 -0.79968,3.19872 0,2.4879 0.17771,3.19872 0.79968,3.19872 0.62197,0 0.79968,-0.71082 0.79968,-3.19872 z m 0,-6.93056 c 0,-2.4879 -0.17771,-3.19873 -0.79968,-3.19873 -0.62197,0 -0.79968,0.71083 -0.79968,3.19873 0,2.48789 0.17771,3.19872 0.79968,3.19872 0.62197,0 0.79968,-0.71083 0.79968,-3.19872 z m 0,-6.93057 c 0,-2.48789 -0.17771,-3.19872 -0.79968,-3.19872 -0.62197,0 -0.79968,0.71083 -0.79968,3.19872 0,2.4879 0.17771,3.19872 0.79968,3.19872 0.62197,0 0.79968,-0.71082 0.79968,-3.19872 z m -0.007,-5.73104 c -0.004,-1.09956 -0.15193,-2.53899 -0.32873,-3.19872 -0.6031,-2.25043 -1.26335,-1.2056 -1.26335,1.9992 0,2.48789 0.17771,3.19872 0.79968,3.19872 0.56996,0 0.79759,-0.57431 0.7924,-1.9992 l 0,0 z m -0.52584,-8.13009 c 0,-1.77707 -0.23694,-3.19872 -0.53312,-3.19872 -0.29618,0 -0.53312,1.42165 -0.53312,3.19872 0,1.77707 0.23694,3.19872 0.53312,3.19872 0.29618,0 0.53312,-1.42165 0.53312,-3.19872 z"
       id="path9551"
       inkscape:connector-curvature="0" />
    <text
       xml:space="preserve"
       style="font-size:20px;font-style:normal;font-variant:normal;font-weight:500;font-stretch:normal;line-height:125%;letter-spacing:0px;word-spacing:0px;fill:#000000;fill-opacity:1;stroke:none;font-family:jsMath-cmr10;-inkscape-font-specification:jsMath-cmr10 Medium"
       x="491.55096"
       y="301.74069"
       id="text9555"
       sodipodi:linespacing="125%"><tspan
         sodipodi:role="line"
         id="tspan9557"
         x="491.55096"
         y="301.74069">c</tspan></text>
    <text
       xml:space="preserve"
       style="font-size:20px;font-style:normal;font-variant:normal;font-weight:500;font-stretch:normal;line-height:125%;letter-spacing:0px;word-spacing:0px;fill:#000000;fill-opacity:1;stroke:none;font-family:jsMath-cmr10;-inkscape-font-specification:jsMath-cmr10 Medium"
       x="601.63879"
       y="407.56351"
       id="text9559"
       sodipodi:linespacing="125%"><tspan
         sodipodi:role="line"
         id="tspan9561"
         x="601.63879"
         y="407.56351">a</tspan></text>
    <text
       xml:space="preserve"
       style="font-size:20px;font-style:normal;font-variant:normal;font-weight:500;font-stretch:normal;line-height:125%;letter-spacing:0px;word-spacing:0px;fill:#000000;fill-opacity:1;stroke:none;font-family:jsMath-cmr10;-inkscape-font-specification:jsMath-cmr10 Medium"
       x="387.45682"
       y="527.65131"
       id="text9563"
       sodipodi:linespacing="125%"><tspan
         sodipodi:role="line"
         id="tspan9565"
         x="387.45682"
         y="527.65131">-1</tspan></text>
    <text
       xml:space="preserve"
       style="font-size:20px;font-style:normal;font-variant:normal;font-weight:500;font-stretch:normal;line-height:125%;letter-spacing:0px;word-spacing:0px;fill:#000000;fill-opacity:1;stroke:none;font-family:jsMath-cmr10;-inkscape-font-specification:jsMath-cmr10 Medium"
       x="456.49753"
       y="527.72131"
       id="text9567"
       sodipodi:linespacing="125%"><tspan
         sodipodi:role="line"
         id="tspan9569"
         x="456.49753"
         y="527.72131">-d</tspan></text>
    <text
       xml:space="preserve"
       style="font-size:20px;font-style:normal;font-variant:normal;font-weight:500;font-stretch:normal;line-height:125%;letter-spacing:0px;word-spacing:0px;fill:#000000;fill-opacity:1;stroke:none;font-family:jsMath-cmr10;-inkscape-font-specification:jsMath-cmr10 Medium"
       x="491.28284"
       y="527.53632"
       id="text9571"
       sodipodi:linespacing="125%"><tspan
         sodipodi:role="line"
         id="tspan9573"
         x="491.28284"
         y="527.53632">0</tspan></text>
    <text
       xml:space="preserve"
       style="font-size:20px;font-style:normal;font-variant:normal;font-weight:500;font-stretch:normal;line-height:125%;letter-spacing:0px;word-spacing:0px;fill:#000000;fill-opacity:1;stroke:none;font-family:jsMath-cmr10;-inkscape-font-specification:jsMath-cmr10 Medium"
       x="523.67072"
       y="527.72131"
       id="text9575"
       sodipodi:linespacing="125%"><tspan
         sodipodi:role="line"
         id="tspan9577"
         x="523.67072"
         y="527.72131">d</tspan></text>
    <text
       xml:space="preserve"
       style="font-size:20px;font-style:normal;font-variant:normal;font-weight:500;font-stretch:normal;line-height:125%;letter-spacing:0px;word-spacing:0px;fill:#000000;fill-opacity:1;stroke:none;font-family:jsMath-cmr10;-inkscape-font-specification:jsMath-cmr10 Medium"
       x="596.0426"
       y="527.65131"
       id="text9579"
       sodipodi:linespacing="125%"><tspan
         sodipodi:role="line"
         id="tspan9581"
         x="596.0426"
         y="527.65131">1</tspan></text>
    <text
       xml:space="preserve"
       style="font-size:20px;font-style:normal;font-variant:normal;font-weight:500;font-stretch:normal;line-height:125%;letter-spacing:0px;word-spacing:0px;fill:#000000;fill-opacity:1;stroke:none;font-family:jsMath-cmr10;-inkscape-font-specification:jsMath-cmr10 Medium"
       x="369.86386"
       y="509.12457"
       id="text9583"
       sodipodi:linespacing="125%"><tspan
         sodipodi:role="line"
         id="tspan9585"
         x="369.86386"
         y="509.12457">-1</tspan></text>
    <text
       xml:space="preserve"
       style="font-size:20px;font-style:normal;font-variant:normal;font-weight:500;font-stretch:normal;line-height:125%;letter-spacing:0px;word-spacing:0px;fill:#000000;fill-opacity:1;stroke:none;font-family:jsMath-cmr10;-inkscape-font-specification:jsMath-cmr10 Medium"
       x="368.78387"
       y="440.08389"
       id="text9587"
       sodipodi:linespacing="125%"><tspan
         sodipodi:role="line"
         id="tspan9589"
         x="368.78387"
         y="440.08389">-d</tspan></text>
    <text
       xml:space="preserve"
       style="font-size:20px;font-style:normal;font-variant:normal;font-weight:500;font-stretch:normal;line-height:125%;letter-spacing:0px;word-spacing:0px;fill:#000000;fill-opacity:1;stroke:none;font-family:jsMath-cmr10;-inkscape-font-specification:jsMath-cmr10 Medium"
       x="376.61371"
       y="409.56351"
       id="text9591"
       sodipodi:linespacing="125%"><tspan
         sodipodi:role="line"
         id="tspan9593"
         x="376.61371"
         y="409.56351">0</tspan></text>
    <text
       xml:space="preserve"
       style="font-size:20px;font-style:normal;font-variant:normal;font-weight:500;font-stretch:normal;line-height:125%;letter-spacing:0px;word-spacing:0px;fill:#000000;fill-opacity:1;stroke:none;font-family:jsMath-cmr10;-inkscape-font-specification:jsMath-cmr10 Medium"
       x="375.92371"
       y="379.84128"
       id="text9595"
       sodipodi:linespacing="125%"><tspan
         sodipodi:role="line"
         id="tspan9597"
         x="375.92371"
         y="379.84128">d</tspan></text>
    <text
       xml:space="preserve"
       style="font-size:20px;font-style:normal;font-variant:normal;font-weight:500;font-stretch:normal;line-height:125%;letter-spacing:0px;word-spacing:0px;fill:#000000;fill-opacity:1;stroke:none;font-family:jsMath-cmr10;-inkscape-font-specification:jsMath-cmr10 Medium"
       x="376.5137"
       y="315.5163"
       id="text9599"
       sodipodi:linespacing="125%"><tspan
         sodipodi:role="line"
         id="tspan9601"
         x="376.5137"
         y="315.5163">1</tspan></text>
    <text
       xml:space="preserve"
       style="font-size:28px;font-style:normal;font-variant:normal;font-weight:normal;font-stretch:normal;line-height:125%;letter-spacing:0px;word-spacing:0px;fill:#000000;fill-opacity:1;stroke:none;font-family:HelveticaNeue;-inkscape-font-specification:HelveticaNeue"
       x="104.38725"
       y="293.09567"
       id="text3818"
       sodipodi:linespacing="125%"><tspan
         sodipodi:role="line"
         id="tspan3820"
         x="104.38725"
         y="293.09567">A</tspan></text>
    <text
       sodipodi:linespacing="125%"
       id="text3822"
       y="293.09567"
       x="354.38727"
       style="font-size:28px;font-style:normal;font-variant:normal;font-weight:normal;font-stretch:normal;line-height:125%;letter-spacing:0px;word-spacing:0px;fill:#000000;fill-opacity:1;stroke:none;font-family:HelveticaNeue;-inkscape-font-specification:HelveticaNeue"
       xml:space="preserve"><tspan
         y="293.09567"
         x="354.38727"
         id="tspan3824"
         sodipodi:role="line">B</tspan></text>
  </g>
</svg>
