<?xml version="1.0" encoding="UTF-8" standalone="no"?>
<!-- Created with Inkscape (http://www.inkscape.org/) -->

<svg
   xmlns:dc="http://purl.org/dc/elements/1.1/"
   xmlns:cc="http://creativecommons.org/ns#"
   xmlns:rdf="http://www.w3.org/1999/02/22-rdf-syntax-ns#"
   xmlns:svg="http://www.w3.org/2000/svg"
   xmlns="http://www.w3.org/2000/svg"
   xmlns:sodipodi="http://sodipodi.sourceforge.net/DTD/sodipodi-0.dtd"
   xmlns:inkscape="http://www.inkscape.org/namespaces/inkscape"
   inkscape:version="0.48.3.1 r9886"
   version="1.1"
   id="svg3091"
   height="243.21822"
   width="574.36475"
   sodipodi:docname="region2and3.svg">
  <sodipodi:namedview
     id="base"
     pagecolor="#ffffff"
     bordercolor="#666666"
     borderopacity="1.0"
     inkscape:pageopacity="0.0"
     inkscape:pageshadow="2"
     inkscape:zoom="1.389361"
     inkscape:cx="287.18237"
     inkscape:cy="121.60911"
     inkscape:document-units="px"
     inkscape:current-layer="layer1"
     showgrid="false"
     fit-margin-top="5"
     fit-margin-left="5"
     fit-margin-right="5"
     fit-margin-bottom="5"
     inkscape:window-width="1317"
     inkscape:window-height="744"
     inkscape:window-x="49"
     inkscape:window-y="24"
     inkscape:window-maximized="1" />
  <defs
     id="defs3093" />
  <metadata
     id="metadata3096">
    <rdf:RDF>
      <cc:Work
         rdf:about="">
        <dc:format>image/svg+xml</dc:format>
        <dc:type
           rdf:resource="http://purl.org/dc/dcmitype/StillImage" />
        <dc:title />
      </cc:Work>
    </rdf:RDF>
  </metadata>
  <g
     inkscape:label="Layer 1"
     inkscape:groupmode="layer"
     id="layer1"
     transform="translate(-11.720992,-337.24162)">
    <rect
       y="374.61392"
       x="40.267239"
       height="200.35715"
       width="200.71428"
       id="rect3985"
       style="fill:#ffffff;stroke:#000000;stroke-width:1;stroke-miterlimit:4;stroke-dasharray:none;stroke-dashoffset:0" />
    <text
       sodipodi:linespacing="125%"
       style="font-size:18px;font-style:normal;font-variant:normal;font-weight:500;font-stretch:normal;text-align:start;line-height:125%;writing-mode:lr-tb;text-anchor:start;font-family:jsMath-cmr10;-inkscape-font-specification:jsMath-cmr10 Medium"
       id="text3943-8"
       y="476.06732"
       x="246.88657"
       xml:space="preserve"><tspan
         y="476.06732"
         x="246.88657"
         id="tspan3945-0"
         sodipodi:role="line">s</tspan></text>
    <text
       sodipodi:linespacing="125%"
       id="text3947-9"
       y="474.99591"
       x="254.02939"
       style="font-size:65.00091553%;font-style:normal;font-variant:normal;font-weight:500;font-stretch:normal;line-height:125%;letter-spacing:0px;word-spacing:0px;baseline-shift:sub;fill:#000000;fill-opacity:1;stroke:none;font-family:jsMath-cmr10;-inkscape-font-specification:jsMath-cmr10 Medium"
       xml:space="preserve"><tspan
         y="474.99591"
         x="254.02939"
         id="tspan3949-8"
         sodipodi:role="line">1</tspan></text>
    <text
       sodipodi:linespacing="125%"
       id="text3955-3"
       y="365.88876"
       x="133.56696"
       style="font-size:18px;font-style:normal;font-variant:normal;font-weight:500;font-stretch:normal;line-height:125%;letter-spacing:0px;word-spacing:0px;fill:#000000;fill-opacity:1;stroke:none;font-family:jsMath-cmr10;-inkscape-font-specification:jsMath-cmr10 Medium"
       xml:space="preserve"><tspan
         y="365.88876"
         x="133.56696"
         id="tspan3957-5"
         sodipodi:role="line">s</tspan></text>
    <text
       sodipodi:linespacing="125%"
       id="text3959-5"
       y="363.74591"
       x="140.70981"
       style="font-size:65.00091553%;font-style:normal;font-variant:normal;font-weight:500;font-stretch:normal;line-height:125%;letter-spacing:0px;word-spacing:0px;baseline-shift:sub;fill:#000000;fill-opacity:1;stroke:none;font-family:jsMath-cmr10;-inkscape-font-specification:jsMath-cmr10 Medium"
       xml:space="preserve"><tspan
         y="363.74591"
         x="140.70981"
         id="tspan3961-5"
         sodipodi:role="line">2</tspan></text>
    <text
       xml:space="preserve"
       x="481.52521"
       y="362.66208"
       id="text3951"
       style="font-size:65.00091553%;baseline-shift:sub"><tspan
         sodipodi:role="line"
         id="tspan3953"
         x="481.52521"
         y="362.66208" /></text>
    <rect
       y="373.73352"
       x="364.16806"
       height="200.71428"
       width="200"
       id="rect2985"
       style="fill:#ffffff;stroke:#000000;stroke-width:1;stroke-miterlimit:4;stroke-dasharray:none;stroke-dashoffset:0" />
    <path
       inkscape:connector-curvature="0"
       id="path3915"
       title="t 1.0/(t)"
       d="m 468.16808,373.73351 c 0.032,0.80364 0.0641,1.58801 0.0961,2.35442 0.032,0.76642 0.0641,1.5148 0.0961,2.24648 0.032,0.73168 0.0641,1.44655 0.0961,2.1458 0.032,0.69925 0.0641,1.3828 0.0961,2.05174 0.032,0.66893 0.0641,1.32317 0.0961,1.96372 0.032,0.64055 0.0641,1.26733 0.0961,1.88126 0.032,0.61393 0.0641,1.21494 0.0961,1.80388 0.032,0.58894 0.0641,1.16574 0.0961,1.73118 0.032,0.56545 0.0641,1.11947 0.0961,1.66279 0.032,0.54333 0.0641,1.07589 0.0961,1.59837 0.032,0.52248 0.0641,1.03482 0.0961,1.53763 0.032,0.50281 0.0641,0.99604 0.0961,1.48027 0.032,0.48424 0.0641,0.95942 0.0961,1.42608 0.032,0.46667 0.0641,0.92477 0.0961,1.37481 0.032,0.45004 0.0641,0.89196 0.0961,1.32625 0.032,0.43428 0.0641,0.86087 0.0961,1.28021 0.032,0.41934 0.0641,0.83139 0.0961,1.23654 0.032,0.40516 0.0641,0.80339 0.0961,1.19507 0.032,0.39168 0.0641,0.77677 0.0961,1.15564 0.032,0.37886 0.0641,0.75146 0.0961,1.11813 0.032,0.36667 0.0641,0.72737 0.0961,1.08243 0.032,0.35505 0.0641,0.70442 0.0961,1.0484 0.032,0.34398 0.0641,0.68253 0.0961,1.01595 0.032,0.33342 0.0641,0.66166 0.0961,0.98499 0.032,0.32333 0.0641,0.64173 0.0961,0.95543 0.032,0.31369 0.0641,0.62267 0.0961,0.92716 0.032,0.30449 0.0641,0.60447 0.0961,0.90015 0.032,0.29568 0.0641,0.58704 0.0961,0.87429 0.032,0.28725 0.0641,0.57036 0.0961,0.84953 0.032,0.27917 0.0641,0.55438 0.0961,0.82581 0.032,0.27143 0.0641,0.53906 0.0961,0.80306 0.032,0.26401 0.0641,0.52437 0.0961,0.78125 0.032,0.25689 0.0641,0.51027 0.0961,0.76032 0.032,0.25004 0.0641,0.49673 0.0961,0.74021 0.032,0.24347 0.0641,0.48372 0.0961,0.72088 0.032,0.23716 0.0641,0.47122 0.0961,0.70231 0.032,0.23109 0.0641,0.4592 0.0961,0.68445 0.032,0.22525 0.0641,0.44763 0.0961,0.66726 0.032,0.21963 0.0641,0.43649 0.0961,0.6507 0.032,0.21422 0.0641,0.42577 0.0961,0.63476 0.032,0.209 0.0641,0.41543 0.0961,0.6194 0.032,0.20397 0.0641,0.40546 0.0961,0.60458 0.032,0.19912 0.0641,0.39585 0.0961,0.59029 0.032,0.19444 0.0641,0.38658 0.0961,0.57651 0.032,0.18992 0.0641,0.37763 0.0961,0.56319 0.032,0.18557 0.0641,0.36899 0.0961,0.55034 0.032,0.18136 0.0641,0.36064 0.0961,0.53792 0.032,0.17729 0.0641,0.35257 0.0961,0.52592 0.032,0.17335 0.0641,0.34476 0.0961,0.51431 0.032,0.16955 0.0641,0.33722 0.0961,0.50308 0.032,0.16587 0.0641,0.32992 0.0961,0.49223 0.032,0.1623 0.0641,0.32285 0.0961,0.4817 0.032,0.15886 0.0641,0.31601 0.0961,0.47153 0.032,0.15551 0.0641,0.30938 0.0961,0.46166 0.032,0.15228 0.0641,0.30296 0.0961,0.45211 0.032,0.14914 0.0641,0.29674 0.0961,0.44284 0.032,0.14611 0.0641,0.29071 0.0961,0.43387 0.032,0.14315 0.0641,0.28486 0.0961,0.42515 0.032,0.1403 0.0641,0.27918 0.0961,0.41671 0.032,0.13752 0.0641,0.27367 0.0961,0.4085 0.032,0.13483 0.0641,0.26833 0.0961,0.40054 0.032,0.13222 0.0641,0.26314 0.0961,0.39282 0.032,0.12967 0.0641,0.25809 0.0961,0.3853 0.032,0.12721 0.0641,0.2532 0.0961,0.37801 0.032,0.12481 0.0641,0.24843 0.0961,0.37091 0.032,0.12248 0.0641,0.24381 0.0961,0.36403 0.032,0.12021 0.0641,0.23931 0.0961,0.35732 0.032,0.11801 0.0641,0.23493 0.0961,0.3508 0.032,0.11587 0.0641,0.23068 0.0961,0.34446 0.032,0.11379 0.0641,0.22654 0.0961,0.33829 0.032,0.11176 0.0641,0.22251 0.0961,0.33228 0.032,0.10978 0.0641,0.21858 0.0961,0.32644 0.032,0.10785 0.0641,0.21475 0.0961,0.32073 0.032,0.10598 0.0641,0.21104 0.0961,0.31519 0.032,0.10416 0.0641,0.20741 0.0961,0.30979 0.032,0.10237 0.0641,0.20387 0.0961,0.30451 0.032,0.10065 0.0641,0.20043 0.0961,0.29939 0.032,0.099 0.0641,0.19707 0.0961,0.29437 0.032,0.0973 0.0641,0.1938 0.0961,0.2895 0.032,0.0957 0.0641,0.1906 0.0961,0.28474 0.032,0.0941 0.0641,0.18748 0.0961,0.28009 0.032,0.0926 0.0641,0.18445 0.0961,0.27556 0.032,0.0911 0.0641,0.18148 0.0961,0.27114 0.032,0.0897 0.0641,0.17859 0.0961,0.26682 0.032,0.0882 0.0641,0.17576 0.0961,0.26261 0.032,0.0868 0.0641,0.173 0.0961,0.25849 0.032,0.0855 0.0641,0.17031 0.0961,0.25447 0.032,0.0842 0.0641,0.16768 0.0961,0.25055 0.032,0.0829 0.0641,0.1651 0.0961,0.24671 0.032,0.0816 0.0641,0.16259 0.0961,0.24296 0.032,0.0804 0.0641,0.16013 0.0961,0.2393 0.032,0.0792 0.0641,0.15773 0.0961,0.23571 0.032,0.078 0.0641,0.15539 0.0961,0.23222 0.032,0.0768 0.0641,0.15309 0.0961,0.22879 0.032,0.0757 0.0641,0.15084 0.0961,0.22544 0.032,0.0746 0.0641,0.14865 0.0961,0.22216 0.032,0.0735 0.0641,0.1465 0.0961,0.21896 0.032,0.0725 0.0641,0.1444 0.0961,0.21583 0.032,0.0714 0.0641,0.14234 0.0961,0.21275 0.032,0.0704 0.0641,0.14033 0.0961,0.20975 0.032,0.0694 0.0641,0.13835 0.0961,0.20681 0.032,0.0684 0.0641,0.13642 0.0961,0.20392 0.032,0.0675 0.0641,0.13454 0.0961,0.20111 0.032,0.0666 0.0641,0.13269 0.0961,0.19835 0.032,0.0657 0.0641,0.13087 0.0961,0.19564 0.032,0.0648 0.0641,0.12909 0.0961,0.19299 0.032,0.0639 0.0641,0.12735 0.0961,0.19039 0.032,0.063 0.0641,0.12565 0.0961,0.18785 0.032,0.0622 0.0641,0.12398 0.0961,0.18535 0.032,0.0614 0.0641,0.12234 0.0961,0.18291 0.032,0.0606 0.0641,0.12074 0.0961,0.18051 0.032,0.0598 0.0641,0.11916 0.0961,0.17817 0.032,0.059 0.0641,0.11761 0.0961,0.17585 0.032,0.0582 0.0641,0.11611 0.0961,0.1736 0.032,0.0575 0.0641,0.11462 0.0961,0.17138 0.032,0.0568 0.0641,0.11316 0.0961,0.16921 0.032,0.056 0.0641,0.11173 0.0961,0.16707 0.032,0.0553 0.0641,0.11033 0.0961,0.16498 0.032,0.0547 0.0641,0.10895 0.0961,0.16293 0.032,0.054 0.0641,0.1076 0.0961,0.1609 0.032,0.0533 0.0641,0.10628 0.0961,0.15893 0.032,0.0527 0.0641,0.10498 0.0961,0.15699 0.032,0.052 0.0641,0.1037 0.0961,0.15508 0.032,0.0514 0.0641,0.10245 0.0961,0.15321 0.032,0.0508 0.0641,0.10122 0.0961,0.15137 0.032,0.0502 0.0641,0.10001 0.0961,0.14956 0.032,0.0496 0.0641,0.0988 0.0961,0.14779 0.032,0.049 0.0641,0.0977 0.0961,0.14605 0.032,0.0484 0.0641,0.0965 0.0961,0.14433 0.032,0.0478 0.0641,0.0954 0.0961,0.14265 0.032,0.0473 0.0641,0.0943 0.0961,0.141 0.032,0.0467 0.0641,0.0932 0.0961,0.13938 0.032,0.0462 0.0641,0.0921 0.0961,0.13778 0.032,0.0457 0.0641,0.0911 0.0961,0.13621 0.032,0.0451 0.0641,0.09 0.0961,0.13467 0.032,0.0446 0.0641,0.089 0.0961,0.13315 0.032,0.0441 0.0641,0.088 0.0961,0.13166 0.032,0.0436 0.0641,0.087 0.0961,0.13019 0.032,0.0432 0.0641,0.0861 0.0961,0.12876 0.032,0.0427 0.0641,0.0851 0.0961,0.12733 0.032,0.0422 0.0641,0.0842 0.0961,0.12594 0.032,0.0417 0.0641,0.0833 0.0961,0.12457 0.032,0.0413 0.0641,0.0824 0.0961,0.12322 0.032,0.0409 0.0641,0.0815 0.0961,0.12189 0.032,0.0404 0.0641,0.0806 0.0961,0.12059 0.032,0.04 0.0641,0.0798 0.0961,0.1193 0.032,0.0396 0.0641,0.0789 0.0961,0.11804 0.032,0.0391 0.0641,0.0781 0.0961,0.11679 0.032,0.0387 0.0641,0.0772 0.0961,0.11556 0.032,0.0383 0.0641,0.0764 0.0961,0.11436 0.032,0.0379 0.0641,0.0756 0.0961,0.11317 0.032,0.0375 0.0641,0.0749 0.0961,0.11201 0.032,0.0371 0.0641,0.0741 0.0961,0.11085 0.032,0.0368 0.0641,0.0733 0.0961,0.10972 0.032,0.0364 0.0641,0.0726 0.0961,0.1086 0.032,0.036 0.0641,0.0718 0.0961,0.1075 0.032,0.0357 0.0641,0.0711 0.0961,0.10642 0.032,0.0353 0.0641,0.0704 0.0961,0.10536 0.032,0.0349 0.0641,0.0697 0.0961,0.1043 0.032,0.0346 0.0641,0.069 0.0961,0.10327 0.032,0.0342 0.0641,0.0683 0.0961,0.10225 0.032,0.0339 0.0641,0.0677 0.0961,0.10125 0.032,0.0336 0.0641,0.067 0.0961,0.10025 0.032,0.0333 0.0641,0.0663 0.0961,0.0993 0.032,0.0329 0.0641,0.0657 0.0961,0.0983 0.032,0.0326 0.0641,0.0651 0.0961,0.0974 0.032,0.0323 0.0641,0.0644 0.0961,0.0964 0.032,0.032 0.0641,0.0638 0.0961,0.0955 0.032,0.0317 0.0641,0.0632 0.0961,0.0946 0.032,0.0314 0.0641,0.0626 0.0961,0.0937 0.032,0.0311 0.0641,0.062 0.0961,0.0928 0.032,0.0308 0.0641,0.0615 0.0961,0.092 0.032,0.0305 0.0641,0.0609 0.0961,0.0911 0.032,0.0302 0.0641,0.0603 0.0961,0.0903 0.032,0.0299 0.0641,0.0598 0.0961,0.0894 0.032,0.0297 0.0641,0.0592 0.0961,0.0886 0.032,0.0294 0.0641,0.0587 0.0961,0.0878 0.032,0.0291 0.0641,0.0581 0.0961,0.087 0.032,0.0289 0.0641,0.0576 0.0961,0.0862 0.032,0.0286 0.0641,0.0571 0.0961,0.0854 0.032,0.0283 0.0641,0.0566 0.0961,0.0847 0.032,0.0281 0.0641,0.0561 0.0961,0.0839 0.032,0.0278 0.0641,0.0556 0.0961,0.0832 0.032,0.0276 0.0641,0.0551 0.0961,0.0824 0.032,0.0274 0.0641,0.0546 0.0961,0.0817 0.032,0.0271 0.0641,0.0541 0.0961,0.081 0.032,0.0269 0.0641,0.0536 0.0961,0.0803 0.032,0.0266 0.0641,0.0532 0.0961,0.0796 0.032,0.0264 0.0641,0.0527 0.0961,0.0789 0.032,0.0262 0.0641,0.0523 0.0961,0.0782 0.032,0.026 0.0641,0.0518 0.0961,0.0775 0.032,0.0257 0.0641,0.0514 0.0961,0.0769 0.032,0.0255 0.0641,0.0509 0.0961,0.0762 0.032,0.0253 0.0641,0.0505 0.0961,0.0756 0.032,0.0251 0.0641,0.05 0.0961,0.0749 0.032,0.0249 0.0641,0.0496 0.0961,0.0743 0.032,0.0247 0.0641,0.0492 0.0961,0.0737 0.032,0.0245 0.0641,0.0488 0.0961,0.0731 0.032,0.0242 0.0641,0.0484 0.0961,0.0724 0.032,0.0241 0.0641,0.048 0.0961,0.0719 0.032,0.0239 0.0641,0.0476 0.0961,0.0713 0.032,0.0237 0.0641,0.0472 0.0961,0.0707 0.032,0.0235 0.0641,0.0468 0.0961,0.0701 0.032,0.0233 0.0641,0.0464 0.0961,0.0695 0.032,0.0231 0.0641,0.0461 0.0961,0.069 0.032,0.0229 0.0641,0.0457 0.0961,0.0684 0.032,0.0227 0.0641,0.0453 0.0961,0.0678 0.032,0.0225 0.0641,0.045 0.0961,0.0673 0.032,0.0223 0.0641,0.0446 0.0961,0.0668 0.032,0.0222 0.0641,0.0442 0.0961,0.0662 0.032,0.022 0.0641,0.0439 0.0961,0.0657 0.032,0.0218 0.0641,0.0435 0.0961,0.0652 0.032,0.0216 0.0641,0.0432 0.0961,0.0647 0.032,0.0215 0.0641,0.0429 0.0961,0.0642 0.032,0.0213 0.0641,0.0425 0.0961,0.0637 0.032,0.0211 0.0641,0.0422 0.0961,0.0632 0.032,0.021 0.0641,0.0419 0.0961,0.0627 0.032,0.0208 0.0641,0.0416 0.0961,0.0622 0.032,0.0207 0.0641,0.0412 0.0961,0.0617 0.032,0.0205 0.0641,0.0409 0.0961,0.0613 0.032,0.0204 0.0641,0.0406 0.0961,0.0608 0.032,0.0202 0.0641,0.0403 0.0961,0.0603 0.032,0.02 0.0641,0.04 0.0961,0.0599 0.032,0.0199 0.0641,0.0397 0.0961,0.0594 0.032,0.0197 0.0641,0.0394 0.0961,0.059 0.032,0.0196 0.0641,0.0391 0.0961,0.0585 0.032,0.0194 0.0641,0.0388 0.0961,0.0581 0.032,0.0193 0.0641,0.0385 0.0961,0.0577 0.032,0.0191 0.0641,0.0382 0.0961,0.0573 0.032,0.019 0.0641,0.0379 0.0961,0.0568 0.032,0.0189 0.0641,0.0377 0.0961,0.0564 0.032,0.0187 0.0641,0.0374 0.0961,0.056 0.032,0.0186 0.0641,0.0371 0.0961,0.0556 0.032,0.0185 0.0641,0.0369 0.0961,0.0552 0.032,0.0183 0.0641,0.0366 0.0961,0.0548 0.032,0.0182 0.0641,0.0363 0.0961,0.0544 0.032,0.0181 0.0641,0.0361 0.0961,0.054 0.032,0.0179 0.0641,0.0358 0.0961,0.0536 0.032,0.0178 0.0641,0.0356 0.0961,0.0532 0.032,0.0177 0.0641,0.0353 0.0961,0.0528 0.032,0.0176 0.0641,0.0351 0.0961,0.0525 0.032,0.0174 0.0641,0.0348 0.0961,0.0521 0.032,0.0173 0.0641,0.0346 0.0961,0.0517 0.032,0.0172 0.0641,0.0343 0.0961,0.0514 0.032,0.0171 0.0641,0.0341 0.0961,0.051 0.032,0.0169 0.0641,0.0338 0.0961,0.0507 0.032,0.0168 0.0641,0.0336 0.0961,0.0503 0.032,0.0167 0.0641,0.0334 0.0961,0.05 0.032,0.0166 0.0641,0.0331 0.0961,0.0496 0.032,0.0165 0.0641,0.0329 0.0961,0.0493 0.032,0.0164 0.0641,0.0327 0.0961,0.0489 0.032,0.0163 0.0641,0.0325 0.0961,0.0486 0.032,0.0162 0.0641,0.0323 0.0961,0.0483 0.032,0.016 0.0641,0.032 0.0961,0.048 0.032,0.0159 0.0641,0.0318 0.0961,0.0476 0.032,0.0158 0.0641,0.0316 0.0961,0.0473 0.032,0.0157 0.0641,0.0314 0.0961,0.047 0.032,0.0156 0.0641,0.0312 0.0961,0.0467 0.032,0.0155 0.0641,0.031 0.0961,0.0464 0.032,0.0154 0.0641,0.0308 0.0961,0.0461 0.032,0.0153 0.0641,0.0306 0.0961,0.0458 0.032,0.0152 0.0641,0.0304 0.0961,0.0455 0.032,0.0151 0.0641,0.0302 0.0961,0.0452 0.032,0.015 0.0641,0.03 0.0961,0.0449 0.032,0.0149 0.0641,0.0298 0.0961,0.0446 0.032,0.0148 0.0641,0.0296 0.0961,0.0443 0.032,0.0147 0.0641,0.0294 0.0961,0.044 0.032,0.0146 0.0641,0.0292 0.0961,0.0437 0.032,0.0145 0.0641,0.029 0.0961,0.0434 0.032,0.0144 0.0641,0.0288 0.0961,0.0432 0.032,0.0143 0.0641,0.0286 0.0961,0.0429 0.032,0.0142 0.0641,0.0284 0.0961,0.0426 0.032,0.0142 0.0641,0.0283 0.0961,0.0423 0.032,0.0141 0.0641,0.0281 0.0961,0.0421 0.032,0.014 0.0641,0.0279 0.0961,0.0418 0.032,0.0139 0.0641,0.0277 0.0961,0.0415 0.032,0.0138 0.0641,0.0276 0.0961,0.0413 0.032,0.0137 0.0641,0.0274 0.0961,0.041 0.032,0.0136 0.0641,0.0272 0.0961,0.0408 0.032,0.0136 0.0641,0.0271 0.0961,0.0405 0.032,0.0135 0.0641,0.0269 0.0961,0.0403 0.032,0.0134 0.0641,0.0267 0.0961,0.04 0.032,0.0133 0.0641,0.0265 0.0961,0.0398 0.032,0.0132 0.0641,0.0264 0.0961,0.0395 0.032,0.0131 0.0641,0.0262 0.0961,0.0393 0.032,0.013 0.0641,0.0261 0.0961,0.039 0.032,0.013 0.0641,0.0259 0.0961,0.0388 0.032,0.0129 0.0641,0.0258 0.0961,0.0386 0.032,0.0128 0.0641,0.0256 0.0961,0.0383 0.032,0.0127 0.0641,0.0254 0.0961,0.0381 0.032,0.0127 0.0641,0.0253 0.0961,0.0379 0.032,0.0126 0.0641,0.0251 0.0961,0.0376 0.032,0.0125 0.0641,0.025 0.0961,0.0374 0.032,0.0124 0.0641,0.0248 0.0961,0.0372 0.032,0.0124 0.0641,0.0247 0.0961,0.037 0.032,0.0123 0.0641,0.0245 0.0961,0.0368 0.032,0.0122 0.0641,0.0244 0.0961,0.0365 0.032,0.0121 0.0641,0.0242 0.0961,0.0363 0.032,0.0121 0.0641,0.0241 0.0961,0.0361 0.032,0.012 0.0641,0.024 0.0961,0.0359 0.032,0.0119 0.0641,0.0238 0.0961,0.0357 0.032,0.0119 0.0641,0.0237 0.0961,0.0355 0.032,0.0118 0.0641,0.0236 0.0961,0.0353 0.032,0.0117 0.0641,0.0234 0.0961,0.0351 0.032,0.0117 0.0641,0.0233 0.0961,0.0349 0.032,0.0116 0.0641,0.0232 0.0961,0.0347 0.032,0.0115 0.0641,0.023 0.0961,0.0345 0.032,0.0114 0.0641,0.0229 0.0961,0.0343 0.032,0.0114 0.0641,0.0228 0.0961,0.0341 0.032,0.0113 0.0641,0.0226 0.0961,0.0339 0.032,0.0113 0.0641,0.0225 0.0961,0.0337 0.032,0.0112 0.0641,0.0224 0.0961,0.0335 0.032,0.0111 0.0641,0.0222 0.0961,0.0333 0.032,0.0111 0.0641,0.0221 0.0961,0.0331 0.032,0.011 0.0641,0.022 0.0961,0.0329 0.032,0.011 0.0641,0.0219 0.0961,0.0328 0.032,0.0109 0.0641,0.0217 0.0961,0.0326 0.032,0.0108 0.0641,0.0216 0.0961,0.0324 0.032,0.0108 0.0641,0.0215 0.0961,0.0322 0.032,0.0107 0.0641,0.0214 0.0961,0.032 0.032,0.0107 0.0641,0.0213 0.0961,0.0319 0.032,0.0106 0.0641,0.0211 0.0961,0.0317 0.032,0.0105 0.0641,0.021 0.0961,0.0315 0.032,0.0105 0.0641,0.0209 0.0961,0.0313 0.032,0.0104 0.0641,0.0208 0.0961,0.0312 0.032,0.0104 0.0641,0.0207 0.0961,0.031 0.032,0.0103 0.0641,0.0206 0.0961,0.0308 0.032,0.0102 0.0641,0.0205 0.0961,0.0307 0.032,0.0102 0.0641,0.0204 0.0961,0.0305 0.032,0.0101 0.0641,0.0203 0.0961,0.0303 0.032,0.0101 0.0641,0.0201 0.0961,0.0302 0.032,0.01 0.0641,0.02 0.0961,0.03 0.032,0.01 0.0641,0.0199 0.0961,0.0299 0.032,0.01 0.0641,0.0198 0.0961,0.0297 0.032,0.01 0.0641,0.0197 0.0961,0.0295 0.032,0.01 0.0641,0.0196 0.0961,0.0294 0.032,0.01 0.0641,0.0195 0.0961,0.0292 0.032,0.01 0.0641,0.0194 0.0961,0.0291 0.032,0.01 0.0641,0.0193 0.0961,0.0289 0.032,0.01 0.0641,0.0192 0.0961,0.0287 0.032,0.01 0.0641,0.0191 0.0961,0.0286 0.032,0.01 0.0641,0.019 0.0961,0.0285 0.032,0.009 0.0641,0.0189 0.0961,0.0283 0.032,0.009 0.0641,0.0188 0.0961,0.0282 0.032,0.009 0.0641,0.0187 0.0961,0.028 0.032,0.009 0.0641,0.0186 0.0961,0.0279 0.032,0.009 0.0641,0.0185 0.0961,0.0277 0.032,0.009 0.0641,0.0184 0.0961,0.0276 0.032,0.009 0.0641,0.0183 0.0961,0.0275 0.032,0.009 0.0641,0.0182 0.0961,0.0273 0.032,0.009 0.0641,0.0181 0.0961,0.0272 0.032,0.009 0.0641,0.018 0.0961,0.027 0.032,0.009 0.0641,0.0179 0.0961,0.0269 0.032,0.009 0.0641,0.0179 0.0961,0.0268 0.032,0.009 0.0641,0.0178 0.0961,0.0266 0.032,0.009 0.0641,0.0177 0.0961,0.0265 0.032,0.009 0.0641,0.0176 0.0961,0.0264 0.032,0.009 0.0641,0.0175 0.0961,0.0262 0.032,0.009 0.0641,0.0174 0.0961,0.0261 0.032,0.009 0.0641,0.0173 0.0961,0.026 0.032,0.009 0.0641,0.0172 0.0961,0.0258 0.032,0.009 0.0641,0.0172 0.0961,0.0257 0.032,0.009 0.0641,0.0171 0.0961,0.0256 0.032,0.008 0.0641,0.017 0.0961,0.0254 0.032,0.008 0.0641,0.0169 0.0961,0.0253 0.032,0.008 0.0641,0.0168 0.0961,0.0252 0.032,0.008 0.0641,0.0167 0.0961,0.0251 0.032,0.008 0.0641,0.0167 0.0961,0.025 0.032,0.008 0.0641,0.0166 0.0961,0.0248 0.032,0.008 0.0641,0.0165 0.0961,0.0247 0.032,0.008 0.0641,0.0164 0.0961,0.0246 0.032,0.008 0.0641,0.0163 0.0961,0.0245 0.032,0.008 0.0641,0.0163 0.0961,0.0244 0.032,0.008 0.0641,0.0162 0.0961,0.0242 0.032,0.008 0.0641,0.0161 0.0961,0.0241 0.032,0.008 0.0641,0.016 0.0961,0.024 0.032,0.008 0.0641,0.016 0.0961,0.0239 0.032,0.008 0.0641,0.0159 0.0961,0.0238 0.032,0.008 0.0641,0.0158 0.0961,0.0237 0.032,0.008 0.0641,0.0157 0.0961,0.0236 0.032,0.008 0.0641,0.0156 0.0961,0.0234 0.032,0.008 0.0641,0.0156 0.0961,0.0233 0.032,0.008 0.0641,0.0155 0.0961,0.0232 0.032,0.008 0.0641,0.0154 0.0961,0.0231 0.032,0.008 0.0641,0.0153 0.0961,0.023 0.032,0.008 0.0641,0.0153 0.0961,0.0229 0.032,0.008 0.0641,0.0152 0.0961,0.0228 0.032,0.008 0.0641,0.0151 0.0961,0.0227 0.032,0.008 0.0641,0.0151 0.0961,0.0226 0.032,0.008 0.0641,0.015 0.0961,0.0225 0.032,0.007 0.0641,0.0149 0.0961,0.0224 0.032,0.007 0.0641,0.0149 0.0961,0.0223 0.032,0.007 0.0641,0.0148 0.0961,0.0222 0.032,0.007 0.0641,0.0147 0.0961,0.0221 0.032,0.007 0.0641,0.0147 0.0961,0.022 0.032,0.007 0.0641,0.0146 0.0961,0.0219 0.032,0.007 0.0641,0.0145 0.0961,0.0218 0.032,0.007 0.0641,0.0145 0.0961,0.0217 0.032,0.007 0.0641,0.0144 0.0961,0.0216 0.032,0.007 0.0641,0.0143 0.0961,0.0215 0.032,0.007 0.0641,0.0143 0.0961,0.0214 0.032,0.007 0.0641,0.0142 0.0961,0.0213 0.032,0.007 0.0641,0.0141 0.0961,0.0212 0.032,0.007 0.0641,0.0141 0.0961,0.0211 0.032,0.007 0.0641,0.014 0.0961,0.021 0.032,0.007 0.0641,0.0139 0.0961,0.0209 0.032,0.007 0.0641,0.0139 0.0961,0.0208 0.032,0.007 0.0641,0.0138 0.0961,0.0207 0.032,0.007 0.0641,0.0138 0.0961,0.0206 0.032,0.007 0.0641,0.0137 0.0961,0.0205 0.032,0.007 0.0641,0.0136 0.0961,0.0204 0.032,0.007 0.0641,0.0136 0.0961,0.0204 0.032,0.007 0.0641,0.0135 0.0961,0.0203 0.032,0.007 0.0641,0.0135 0.0961,0.0202 0.032,0.007 0.0641,0.0134 0.0961,0.0201 0.032,0.007 0.0641,0.0133 0.0961,0.02 0.032,0.007 0.0641,0.0133 0.0961,0.0199 0.032,0.007 0.0641,0.0132 0.0961,0.0198 0.032,0.007 0.0641,0.0132 0.0961,0.0197 0.032,0.007 0.0641,0.0131 0.0961,0.0197 0.032,0.007 0.0641,0.013 0.0961,0.0196 0.032,0.007 0.0641,0.013 0.0961,0.0195 0.032,0.006 0.0641,0.0129 0.0961,0.0194 0.032,0.006 0.0641,0.0129 0.0961,0.0193 0.032,0.006 0.0641,0.0128 0.0961,0.0192 0.032,0.006 0.0641,0.0128 0.0961,0.0191 0.032,0.006 0.0641,0.0127 0.0961,0.0191 0.032,0.006 0.0641,0.0127 0.0961,0.019 0.032,0.006 0.0641,0.0126 0.0961,0.0189 0.032,0.006 0.0641,0.0126 0.0961,0.0188 0.032,0.006 0.0641,0.0125 0.0961,0.0188 0.032,0.006 0.0641,0.0125 0.0961,0.0187 0.032,0.006 0.0641,0.0124 0.0961,0.0186 0.032,0.006 0.0641,0.0123 0.0961,0.0185 0.032,0.006 0.0641,0.0123 0.0961,0.0184 0.032,0.006 0.0641,0.0122 0.0961,0.0183 0.032,0.006 0.0641,0.0122 0.0961,0.0183 0.032,0.006 0.0641,0.0121 0.0961,0.0182 0.032,0.006 0.0641,0.0121 0.0961,0.0181 0.032,0.006 0.0641,0.012 0.0961,0.018 0.032,0.006 0.0641,0.012 0.0961,0.018 0.032,0.006 0.0641,0.012 0.0961,0.0179 0.032,0.006 0.0641,0.0119 0.0961,0.0178 0.032,0.006 0.0641,0.0119 0.0961,0.0178 0.032,0.006 0.0641,0.0118 0.0961,0.0177 0.032,0.006 0.0641,0.0118 0.0961,0.0176 0.032,0.006 0.0641,0.0117 0.0961,0.0175 0.032,0.006 0.0641,0.0117 0.0961,0.0175 0.032,0.006 0.0641,0.0116 0.0961,0.0174 0.032,0.006 0.0641,0.0115 0.0961,0.0173 0.032,0.006 0.0641,0.0115 0.0961,0.0172 0.032,0.006 0.0641,0.0115 0.0961,0.0172 0.032,0.006 0.0641,0.0114 0.0961,0.0171 0.032,0.006 0.0641,0.0114 0.0961,0.017 0.032,0.006 0.0641,0.0113 0.0961,0.017 0.032,0.006 0.0641,0.0113 0.0961,0.0169 0.032,0.006 0.0641,0.0112 0.0961,0.0168 0.032,0.006 0.0641,0.0112 0.0961,0.0168 0.032,0.006 0.0641,0.0112 0.0961,0.0167 0.032,0.006 0.0641,0.0111 0.0961,0.0166 0.032,0.006 0.0641,0.0111 0.0961,0.0166 0.032,0.006 0.0641,0.011 0.0961,0.0165 0.032,0.005 0.0641,0.011 0.0961,0.0164 0.032,0.005 0.0641,0.0109 0.0961,0.0164 0.032,0.005 0.0641,0.0109 0.0961,0.0163 0.032,0.005 0.0641,0.0108 0.0961,0.0163 0.032,0.005 0.0641,0.0108 0.0961,0.0162 0.032,0.005 0.0641,0.0108 0.0961,0.0161 0.032,0.005 0.0641,0.0107 0.0961,0.0161 0.032,0.005 0.0641,0.0107 0.0961,0.016 0.032,0.005 0.0641,0.0106 0.0961,0.0159 0.032,0.005 0.0641,0.0106 0.0961,0.0159 0.032,0.005 0.0641,0.0105 0.0961,0.0158 0.032,0.005 0.0641,0.0105 0.0961,0.0157 0.032,0.005 0.0641,0.0105 0.0961,0.0157 0.032,0.005 0.0641,0.0104 0.0961,0.0156 0.032,0.005 0.0641,0.0104 0.0961,0.0156 0.032,0.005 0.0641,0.0103 0.0961,0.0155 0.032,0.005 0.0641,0.0103 0.0961,0.0154 0.032,0.005 0.0641,0.0103 0.0961,0.0154 0.032,0.005 0.0641,0.0102 0.0961,0.0153 0.032,0.005 0.0641,0.0102 0.0961,0.0153 0.032,0.005 0.0641,0.0102 0.0961,0.0152 0.032,0.005 0.0641,0.0101 0.0961,0.0151 0.032,0.005 0.0641,0.0101 0.0961,0.0151 0.032,0.005 0.0641,0.01 0.0961,0.015 0.032,0.005 0.0641,0.01 0.0961,0.015 0.032,0.005 0.0641,0.01 0.0961,0.0149 0.032,0.005 0.0641,0.01 0.0961,0.0149 0.032,0.005 0.0641,0.01 0.0961,0.0148 0.032,0.005 0.0641,0.01 0.0961,0.0148 0.032,0.005 0.0641,0.01 0.0961,0.0147 0.032,0.005 0.0641,0.01 0.0961,0.0146 0.032,0.005 0.0641,0.01 0.0961,0.0146 0.032,0.005 0.0641,0.01 0.0961,0.0145 0.032,0.005 0.0641,0.01 0.0961,0.0145 0.032,0.005 0.0641,0.01 0.0961,0.0144 0.032,0.005 0.0641,0.01 0.0961,0.0144 0.032,0.005 0.0641,0.01 0.0961,0.0143 0.032,0.005 0.0641,0.01 0.0961,0.0143 0.032,0.005 0.0641,0.009 0.0961,0.0142 0.032,0.005 0.0641,0.009 0.0961,0.0142 0.032,0.005 0.0641,0.009 0.0961,0.0141 0.032,0.005 0.0641,0.009 0.0961,0.0141 0.032,0.005 0.0641,0.009 0.0961,0.014 0.032,0.005 0.0641,0.009 0.0961,0.0139 0.032,0.005 0.0641,0.009 0.0961,0.0139 0.032,0.005 0.0641,0.009 0.0961,0.0139 0.032,0.005 0.0641,0.009 0.0961,0.0138 0.032,0.005 0.0641,0.009 0.0961,0.0138 0.032,0.005 0.0641,0.009 0.0961,0.0137 0.032,0.005 0.0641,0.009 0.0961,0.0137 0.032,0.005 0.0641,0.009 0.0961,0.0136 0.032,0.005 0.0641,0.009 0.0961,0.0135 0.032,0.005 0.0641,0.009 0.0961,0.0135 0.032,0.005 0.0641,0.009 0.0961,0.0135 0.032,0.004 0.0641,0.009 0.0961,0.0134 0.032,0.004 0.0641,0.009 0.0961,0.0134 0.032,0.004 0.0641,0.009 0.0961,0.0133 0.032,0.004 0.0641,0.009 0.0961,0.0133 0.032,0.004 0.0641,0.009 0.0961,0.0132 0.032,0.004 0.0641,0.009 0.0961,0.0132 0.032,0.004 0.0641,0.009 0.0961,0.0131 0.032,0.004 0.0641,0.009 0.0961,0.0131 0.032,0.004 0.0641,0.009 0.0961,0.013 0.032,0.004 0.0641,0.009 0.0961,0.013 0.032,0.004 0.0641,0.009 0.0961,0.0129 0.032,0.004 0.0641,0.009 0.0961,0.0129 0.032,0.004 0.0641,0.009 0.0961,0.0129 0.032,0.004 0.0641,0.009 0.0961,0.0128 0.032,0.004 0.0641,0.009 0.0961,0.0128 0.032,0.004 0.0641,0.008 0.0961,0.0127 0.032,0.004 0.0641,0.008 0.0961,0.0127 0.032,0.004 0.0641,0.008 0.0961,0.0126 0.032,0.004 0.0641,0.008 0.0961,0.0126 0.032,0.004 0.0641,0.008 0.0961,0.0125 0.032,0.004 0.0641,0.008 0.0961,0.0125 0.032,0.004 0.0641,0.008 0.0961,0.0125 0.032,0.004 0.0641,0.008 0.0961,0.0124 0.032,0.004 0.0641,0.008 0.0961,0.0124 0.032,0.004 0.0641,0.008 0.0961,0.0123 0.032,0.004 0.0641,0.008 0.0961,0.0123 0.032,0.004 0.0641,0.008 0.0961,0.0122 0.032,0.004 0.0641,0.008 0.0961,0.0122 0.032,0.004 0.0641,0.008 0.0961,0.0122 0.032,0.004 0.0641,0.008 0.0961,0.0121 0.032,0.004 0.0641,0.008 0.0961,0.0121 0.032,0.004 0.0641,0.008 0.0961,0.012 0.032,0.004 0.0641,0.008 0.0961,0.012 0.032,0.004 0.0641,0.008 0.0961,0.012 0.032,0.004 0.0641,0.008 0.0961,0.0119 0.032,0.004 0.0641,0.008 0.0961,0.0119 0.032,0.004 0.0641,0.008 0.0961,0.0118 0.032,0.004 0.0641,0.008 0.0961,0.0118 0.032,0.004 0.0641,0.008 0.0961,0.0118 0.032,0.004 0.0641,0.008 0.0961,0.0117 0.032,0.004 0.0641,0.008 0.0961,0.0117 0.032,0.004 0.0641,0.008 0.0961,0.0116 0.032,0.004 0.0641,0.008 0.0961,0.0116 0.032,0.004 0.0641,0.008 0.0961,0.0116 0.032,0.004 0.0641,0.008 0.0961,0.0115 0.032,0.004 0.0641,0.008 0.0961,0.0115 0.032,0.004 0.0641,0.008 0.0961,0.0114 0.032,0.004 0.0641,0.008 0.0961,0.0114 0.032,0.004 0.0641,0.008 0.0961,0.0114 0.032,0.004 0.0641,0.008 0.0961,0.0113 0.032,0.004 0.0641,0.008 0.0961,0.0113 0.032,0.004 0.0641,0.008 0.0961,0.0113 0.032,0.004 0.0641,0.007 0.0961,0.0112 0.032,0.004 0.0641,0.007 0.0961,0.0112 0.032,0.004 0.0641,0.007 0.0961,0.0112 0.032,0.004 0.0641,0.007 0.0961,0.0111 0.032,0.004 0.0641,0.007 0.0961,0.0111 0.032,0.004 0.0641,0.007 0.0961,0.011 0.032,0.004 0.0641,0.007 0.0961,0.011 0.032,0.004 0.0641,0.007 0.0961,0.011 0.032,0.004 0.0641,0.007 0.0961,0.0109 0.032,0.004 0.0641,0.007 0.0961,0.0109 0.032,0.004 0.0641,0.007 0.0961,0.0109 0.032,0.004 0.0641,0.007 0.0961,0.0108 0.032,0.004 0.0641,0.007 0.0961,0.0108 0.032,0.004 0.0641,0.007 0.0961,0.0108 0.032,0.004 0.0641,0.007 0.0961,0.0107 0.032,0.004 0.0641,0.007 0.0961,0.0107 0.032,0.004 0.0641,0.007 0.0961,0.0107 0.032,0.004 0.0641,0.007 0.0961,0.0106 0.032,0.004 0.0641,0.007 0.0961,0.0106 0.032,0.004 0.0641,0.007 0.0961,0.0105 0.032,0.004 0.0641,0.007 0.0961,0.0105 0.032,0.004 0.0641,0.007 0.0961,0.0105 0.032,0.003 0.0641,0.007 0.0961,0.0105 0.032,0.003 0.0641,0.007 0.0961,0.0104 0.032,0.003 0.0641,0.007 0.0961,0.0104 0.032,0.003 0.0641,0.007 0.0961,0.0103 0.032,0.003 0.0641,0.007 0.0961,0.0103 0.032,0.003 0.0641,0.007 0.0961,0.0103 0.032,0.003 0.0641,0.007 0.0961,0.0103 0.032,0.003 0.0641,0.007 0.0961,0.0102 0.032,0.003 0.0641,0.007 0.0961,0.0102 0.032,0.003 0.0641,0.007 0.0961,0.0102 0.032,0.003 0.0641,0.007 0.0961,0.0101 0.032,0.003 0.0641,0.007 0.0961,0.0101 0.032,0.003 0.0641,0.007 0.0961,0.0101 0.032,0.003 0.0641,0.007 0.0961,0.01 0.032,0.003 0.0641,0.007 0.0961,0.01 0.032,0.003 0.0641,0.007 0.0961,0.01 0.032,0.003 0.0641,0.007 0.0961,0.01 0.032,0.003 0.0641,0.007 0.0961,0.01 0.032,0.003 0.0641,0.007 0.0961,0.01 0.032,0.003 0.0641,0.007 0.0961,0.01 0.032,0.003 0.0641,0.007 0.0961,0.01 0.032,0.003 0.0641,0.007 0.0961,0.01 0.032,0.003 0.0641,0.007 0.0961,0.01 0.032,0.003 0.0641,0.007 0.0961,0.01 0.032,0.003 0.0641,0.006 0.0961,0.01 0.032,0.003 0.0641,0.006 0.0961,0.01 0.032,0.003 0.0641,0.006 0.0961,0.01 0.032,0.003 0.0641,0.006 0.0961,0.01 0.032,0.003 0.0641,0.006 0.0961,0.01 0.032,0.003 0.0641,0.006 0.0961,0.01 0.032,0.003 0.0641,0.006 0.0961,0.01 0.032,0.003 0.0641,0.006 0.0961,0.01 0.032,0.003 0.0641,0.006 0.0961,0.009 0.032,0.003 0.0641,0.006 0.0961,0.009 0.032,0.003 0.0641,0.006 0.0961,0.009 0.032,0.003 0.0641,0.006 0.0961,0.009 0.032,0.003 0.0641,0.006 0.0961,0.009 0.032,0.003 0.0641,0.006 0.0961,0.009 0.032,0.003 0.0641,0.006 0.0961,0.009 0.032,0.003 0.0641,0.006 0.0961,0.009 0.032,0.003 0.0641,0.006 0.0961,0.009 0.032,0.003 0.0641,0.006 0.0961,0.009 0.032,0.003 0.0641,0.006 0.0961,0.009 0.032,0.003 0.0641,0.006 0.0961,0.009 0.032,0.003 0.0641,0.006 0.0961,0.009 0.032,0.003 0.0641,0.006 0.0961,0.009 0.032,0.003 0.0641,0.006 0.0961,0.009 0.032,0.003 0.0641,0.006 0.0961,0.009 0.032,0.003 0.0641,0.006 0.0961,0.009 0.032,0.003 0.0641,0.006 0.0961,0.009 0.032,0.003 0.0641,0.006 0.0961,0.009 0.032,0.003 0.0641,0.006 0.0961,0.009 0.032,0.003 0.0641,0.006 0.0961,0.009 0.032,0.003 0.0641,0.006 0.0961,0.009 0.032,0.003 0.0641,0.006 0.0961,0.009 0.032,0.003 0.0641,0.006 0.0961,0.009 0.032,0.003 0.0641,0.006 0.0961,0.009 0.032,0.003 0.0641,0.006 0.0961,0.009 0.032,0.003 0.0641,0.006 0.0961,0.009 0.032,0.003 0.0641,0.006 0.0961,0.009 0.032,0.003 0.0641,0.006 0.0961,0.009 0.032,0.003 0.0641,0.006 0.0961,0.009 0.032,0.003 0.0641,0.006 0.0961,0.009 0.032,0.003 0.0641,0.006 0.0961,0.009 0.032,0.003 0.0641,0.006 0.0961,0.009 0.032,0.003 0.0641,0.006 0.0961,0.009 0.032,0.003 0.0641,0.006 0.0961,0.009 0.032,0.003 0.0641,0.006 0.0961,0.009 0.032,0.003 0.0641,0.006 0.0961,0.009 0.032,0.003 0.0641,0.006 0.0961,0.008 0.032,0.003 0.0641,0.006 0.0961,0.008 0.032,0.003 0.0641,0.006 0.0961,0.008 0.032,0.003 0.0641,0.006 0.0961,0.008 0.032,0.003 0.0641,0.006 0.0961,0.008 0.032,0.003 0.0641,0.006 0.0961,0.008 0.032,0.003 0.0641,0.006 0.0961,0.008 0.032,0.003 0.0641,0.006 0.0961,0.008 0.032,0.003 0.0641,0.006 0.0961,0.008 0.032,0.003 0.0641,0.006 0.0961,0.008 0.032,0.003 0.0641,0.006 0.0961,0.008 0.032,0.003 0.0641,0.005 0.0961,0.008 0.032,0.003 0.0641,0.005 0.0961,0.008 0.032,0.003 0.0641,0.005 0.0961,0.008 0.032,0.003 0.0641,0.005 0.0961,0.008 0.032,0.003 0.0641,0.005 0.0961,0.008 0.032,0.003 0.0641,0.005 0.0961,0.008 0.032,0.003 0.0641,0.005 0.0961,0.008 0.032,0.003 0.0641,0.005 0.0961,0.008 0.032,0.003 0.0641,0.005 0.0961,0.008 0.032,0.003 0.0641,0.005 0.0961,0.008 0.032,0.003 0.0641,0.005 0.0961,0.008 0.032,0.003 0.0641,0.005 0.0961,0.008 0.032,0.003 0.0641,0.005 0.0961,0.008 0.032,0.003 0.0641,0.005 0.0961,0.008 0.032,0.003 0.0641,0.005 0.0961,0.008 0.032,0.003 0.0641,0.005 0.0961,0.008 0.032,0.003 0.0641,0.005 0.0961,0.008 0.032,0.003 0.0641,0.005 0.0961,0.008 0.032,0.003 0.0641,0.005 0.0961,0.008 0.032,0.003 0.0641,0.005 0.0961,0.008 0.032,0.003 0.0641,0.005 0.0961,0.008 0.032,0.003 0.0641,0.005 0.0961,0.008 0.032,0.003 0.0641,0.005 0.0961,0.008 0.032,0.003 0.0641,0.005 0.0961,0.008 0.032,0.003 0.0641,0.005 0.0961,0.008 0.032,0.003 0.0641,0.005 0.0961,0.008 0.032,0.003 0.0641,0.005 0.0961,0.008 0.032,0.003 0.0641,0.005 0.0961,0.008 0.032,0.003 0.0641,0.005 0.0961,0.008 0.032,0.003 0.0641,0.005 0.0961,0.008 0.032,0.003 0.0641,0.005 0.0961,0.008 0.032,0.003 0.0641,0.005 0.0961,0.008 0.032,0.003 0.0641,0.005 0.0961,0.008 0.032,0.003 0.0641,0.005 0.0961,0.008 0.032,0.003 0.0641,0.005 0.0961,0.008 0.032,0.002 0.0641,0.005 0.0961,0.007 0.032,0.002 0.0641,0.005 0.0961,0.007 0.032,0.002 0.0641,0.005 0.0961,0.007 0.032,0.002 0.0641,0.005 0.0961,0.007 0.032,0.002 0.0641,0.005 0.0961,0.007 0.032,0.002 0.0641,0.005 0.0961,0.007 0.032,0.002 0.0641,0.005 0.0961,0.007 0.032,0.002 0.0641,0.005 0.0961,0.007 0.032,0.002 0.0641,0.005 0.0961,0.007 0.032,0.002 0.0641,0.005 0.0961,0.007 0.032,0.002 0.0641,0.005 0.0961,0.007 0.032,0.002 0.0641,0.005 0.0961,0.007 0.032,0.002 0.0641,0.005 0.0961,0.007 0.032,0.002 0.0641,0.005 0.0961,0.007 0.032,0.002 0.0641,0.005 0.0961,0.007 0.032,0.002 0.0641,0.005 0.0961,0.007 0.032,0.002 0.0641,0.005 0.0961,0.007 0.032,0.002 0.0641,0.005 0.0961,0.007 0.032,0.002 0.0641,0.005 0.0961,0.007 0.032,0.002 0.0641,0.005 0.0961,0.007 0.032,0.002 0.0641,0.005 0.0961,0.007 0.032,0.002 0.0641,0.005 0.0961,0.007 0.032,0.002 0.0641,0.005 0.0961,0.007 0.032,0.002 0.0641,0.005 0.0961,0.007 0.032,0.002 0.0641,0.005 0.0961,0.007 0.032,0.002 0.0641,0.005 0.0961,0.007 0.032,0.002 0.0641,0.005 0.0961,0.007 0.032,0.002 0.0641,0.005 0.0961,0.007 0.032,0.002 0.0641,0.005 0.0961,0.007 0.032,0.002 0.0641,0.005 0.0961,0.007 0.032,0.002 0.0641,0.005 0.0961,0.007 0.032,0.002 0.0641,0.005 0.0961,0.007 0.032,0.002 0.0641,0.005 0.0961,0.007 0.032,0.002 0.0641,0.005 0.0961,0.007 0.032,0.002 0.0641,0.005 0.0961,0.007 0.032,0.002 0.0641,0.005 0.0961,0.007 0.032,0.002 0.0641,0.005 0.0961,0.007 0.032,0.002 0.0641,0.005 0.0961,0.007 0.032,0.002 0.0641,0.005 0.0961,0.007 0.032,0.002 0.0641,0.005 0.0961,0.007 0.032,0.002 0.0641,0.005 0.0961,0.007 0.032,0.002 0.0641,0.004 0.0961,0.007 0.032,0.002 0.0641,0.004 0.0961,0.007 0.032,0.002 0.0641,0.004 0.0961,0.007 0.032,0.002 0.0641,0.004 0.0961,0.007 0.032,0.002 0.0641,0.004 0.0961,0.007 0.032,0.002 0.0641,0.004 0.0961,0.007 0.032,0.002 0.0641,0.004 0.0961,0.007 0.032,0.002 0.0641,0.004 0.0961,0.007 0.032,0.002 0.0641,0.004 0.0961,0.007 0.032,0.002 0.0641,0.004 0.0961,0.007 0.032,0.002 0.0641,0.004 0.0961,0.007 0.032,0.002 0.0641,0.004 0.0961,0.007 0.032,0.002 0.0641,0.004 0.0961,0.007 0.032,0.002 0.0641,0.004 0.0961,0.007 0.032,0.002 0.0641,0.004 0.0961,0.006 0.032,0.002 0.0641,0.004 0.0961,0.006 0.032,0.002 0.0641,0.004 0.0961,0.006 0.032,0.002 0.0641,0.004 0.0961,0.006 0.032,0.002 0.0641,0.004 0.0961,0.006 0.032,0.002 0.0641,0.004 0.0961,0.006 0.032,0.002 0.0641,0.004 0.0961,0.006 0.032,0.002 0.0641,0.004 0.0961,0.006 0.032,0.002 0.0641,0.004 0.0961,0.006 0.032,0.002 0.0641,0.004 0.0961,0.006 0.032,0.002 0.0641,0.004 0.0961,0.006 0.032,0.002 0.0641,0.004 0.0961,0.006 0.032,0.002 0.0641,0.004 0.0961,0.006 0.032,0.002 0.0641,0.004 0.0961,0.006 0.032,0.002 0.0641,0.004 0.0961,0.006 0.032,0.002 0.0641,0.004 0.0961,0.006 0.032,0.002 0.0641,0.004 0.0961,0.006 0.032,0.002 0.0641,0.004 0.0961,0.006 0.032,0.002 0.0641,0.004 0.0961,0.006 0.032,0.002 0.0641,0.004 0.0961,0.006 0.032,0.002 0.0641,0.004 0.0961,0.006 0.032,0.002 0.0641,0.004 0.0961,0.006 0.032,0.002 0.0641,0.004 0.0961,0.006 0.032,0.002 0.0641,0.004 0.0961,0.006 0.032,0.002 0.0641,0.004 0.0961,0.006 0.032,0.002 0.0641,0.004 0.0961,0.006 0.032,0.002 0.0641,0.004 0.0961,0.006 0.032,0.002 0.0641,0.004 0.0961,0.006 0.032,0.002 0.0641,0.004 0.0961,0.006 0.032,0.002 0.0641,0.004 0.0961,0.006 0.032,0.002 0.0641,0.004 0.0961,0.006 0.032,0.002 0.0641,0.004 0.0961,0.006 0.032,0.002 0.0641,0.004 0.0961,0.006 0.032,0.002 0.0641,0.004 0.0961,0.006 0.032,0.002 0.0641,0.004 0.0961,0.006 0.032,0.002 0.0641,0.004 0.0961,0.006 0.032,0.002 0.0641,0.004 0.0961,0.006 0.032,0.002 0.0641,0.004 0.0961,0.006 0.032,0.002 0.0641,0.004 0.0961,0.006 0.032,0.002 0.0641,0.004 0.0961,0.006 0.032,0.002 0.0641,0.004 0.0961,0.006 0.032,0.002 0.0641,0.004 0.0961,0.006 0.032,0.002 0.0641,0.004 0.0961,0.006 0.032,0.002 0.0641,0.004 0.0961,0.006 0.032,0.002 0.0641,0.004 0.0961,0.006 0.032,0.002 0.0641,0.004 0.0961,0.006 0.032,0.002 0.0641,0.004 0.0961,0.006 0.032,0.002 0.0641,0.004 0.0961,0.006 0.032,0.002 0.0641,0.004 0.0961,0.006 0.032,0.002 0.0641,0.004 0.0961,0.006 0.032,0.002 0.0641,0.004 0.0961,0.006 0.032,0.002 0.0641,0.004 0.0961,0.006 0.032,0.002 0.0641,0.004 0.0961,0.006 0.032,0.002 0.0641,0.004 0.0961,0.006 0.032,0.002 0.0641,0.004 0.0961,0.006 0.032,0.002 0.0641,0.004 0.0961,0.006 0.032,0.002 0.0641,0.004 0.0961,0.006 0.032,0.002 0.0641,0.004 0.0961,0.006 0.032,0.002 0.0641,0.004 0.0961,0.006 0.032,0.002 0.0641,0.004 0.0961,0.006 0.032,0.002 0.0641,0.004 0.0961,0.006 0.032,0.002 0.0641,0.004 0.0961,0.006 0.032,0.002 0.0641,0.004 0.0961,0.006 0.032,0.002 0.0641,0.004 0.0961,0.006 0.032,0.002 0.0641,0.004 0.0961,0.006 0.032,0.002 0.0641,0.004 0.0961,0.006 0.032,0.002 0.0641,0.004 0.0961,0.006 0.032,0.002 0.0641,0.004 0.0961,0.006 0.032,0.002 0.0641,0.004 0.0961,0.006 0.032,0.002 0.0641,0.004 0.0961,0.006 0.032,0.002 0.0641,0.004 0.0961,0.005 0.032,0.002 0.0641,0.004 0.0961,0.005 0.032,0.002 0.0641,0.004 0.0961,0.005 0.032,0.002 0.0641,0.004 0.0961,0.005 0.032,0.002 0.0641,0.004 0.0961,0.005 0.032,0.002 0.0641,0.004 0.0961,0.005 0.032,0.002 0.0641,0.004 0.0961,0.005 0.032,0.002 0.0641,0.004 0.0961,0.005 0.032,0.002 0.0641,0.004 0.0961,0.005 0.032,0.002 0.0641,0.004 0.0961,0.005 0.032,0.002 0.0641,0.004 0.0961,0.005 0.032,0.002 0.0641,0.004 0.0961,0.005 0.032,0.002 0.0641,0.004 0.0961,0.005 0.032,0.002 0.0641,0.004 0.0961,0.005 0.032,0.002 0.0641,0.004 0.0961,0.005 0.032,0.002 0.0641,0.004 0.0961,0.005 0.032,0.002 0.0641,0.004 0.0961,0.005 0.032,0.002 0.0641,0.004 0.0961,0.005 0.032,0.002 0.0641,0.004 0.0961,0.005 0.032,0.002 0.0641,0.004 0.0961,0.005 0.032,0.002 0.0641,0.004 0.0961,0.005 0.032,0.002 0.0641,0.003 0.0961,0.005 0.032,0.002 0.0641,0.003 0.0961,0.005 0.032,0.002 0.0641,0.003 0.0961,0.005 0.032,0.002 0.0641,0.003 0.0961,0.005 0.032,0.002 0.0641,0.003 0.0961,0.005 0.032,0.002 0.0641,0.003 0.0961,0.005 0.032,0.002 0.0641,0.003 0.0961,0.005 0.032,0.002 0.0641,0.003 0.0961,0.005 0.032,0.002 0.0641,0.003 0.0961,0.005 0.032,0.002 0.0641,0.003 0.0961,0.005 0.032,0.002 0.0641,0.003 0.0961,0.005 0.032,0.002 0.0641,0.003 0.0961,0.005 0.032,0.002 0.0641,0.003 0.0961,0.005 0.032,0.002 0.0641,0.003 0.0961,0.005 0.032,0.002 0.0641,0.003 0.0961,0.005 0.032,0.002 0.0641,0.003 0.0961,0.005 0.032,0.002 0.0641,0.003 0.0961,0.005 0.032,0.002 0.0641,0.003 0.0961,0.005 0.032,0.002 0.0641,0.003 0.0961,0.005 0.032,0.002 0.0641,0.003 0.0961,0.005 0.032,0.002 0.0641,0.003 0.0961,0.005 0.032,0.002 0.0641,0.003 0.0961,0.005 0.032,0.002 0.0641,0.003 0.0961,0.005 0.032,0.002 0.0641,0.003 0.0961,0.005 0.032,0.002 0.0641,0.003 0.0961,0.005 0.032,0.002 0.0641,0.003 0.0961,0.005 0.032,0.002 0.0641,0.003 0.0961,0.005 0.032,0.002 0.0641,0.003 0.0961,0.005 0.032,0.002 0.0641,0.003 0.0961,0.005 0.032,0.002 0.0641,0.003 0.0961,0.005 0.032,0.002 0.0641,0.003 0.0961,0.005 0.032,0.002 0.0641,0.003 0.0961,0.005 0.032,0.002 0.0641,0.003 0.0961,0.005 0.032,0.002 0.0641,0.003 0.0961,0.005 0.032,0.002 0.0641,0.003 0.0961,0.005 0.032,0.002 0.0641,0.003 0.0961,0.005 0.032,0.002 0.0641,0.003 0.0961,0.005 0.032,0.002 0.0641,0.003 0.0961,0.005 0.032,0.002 0.0641,0.003 0.0961,0.005 0.032,0.002 0.0641,0.003 0.0961,0.005 0.032,0.002 0.0641,0.003 0.0961,0.005 0.032,0.002 0.0641,0.003 0.0961,0.005 0.032,0.002 0.0641,0.003 0.0961,0.005 0.032,0.002 0.0641,0.003 0.0961,0.005 0.032,0.002 0.0641,0.003 0.0961,0.005 0.032,0.002 0.0641,0.003 0.0961,0.005 0.032,0.002 0.0641,0.003 0.0961,0.005 0.032,0.002 0.0641,0.003 0.0961,0.005 0.032,0.002 0.0641,0.003 0.0961,0.005 0.032,0.002 0.0641,0.003 0.0961,0.005 0.032,0.002 0.0641,0.003 0.0961,0.005 0.032,0.002 0.0641,0.003 0.0961,0.005 0.032,0.002 0.0641,0.003 0.0961,0.005 0.032,0.002 0.0641,0.003 0.0961,0.005 0.032,0.002 0.0641,0.003 0.0961,0.005 0.032,0.002 0.0641,0.003 0.0961,0.005 0.032,0.002 0.0641,0.003 0.0961,0.005 0.032,0.002 0.0641,0.003 0.0961,0.005 0.032,0.002 0.0641,0.003 0.0961,0.005 0.032,0.002 0.0641,0.003 0.0961,0.005 0.032,0.002 0.0641,0.003 0.0961,0.005 0.032,0.002 0.0641,0.003 0.0961,0.005 0.032,0.002 0.0641,0.003 0.0961,0.005 0.032,0.002 0.0641,0.003 0.0961,0.005 0.032,0.002 0.0641,0.003 0.0961,0.005 0.032,0.002 0.0641,0.003 0.0961,0.005 0.032,0.002 0.0641,0.003 0.0961,0.005 0.032,0.002 0.0641,0.003 0.0961,0.005 0.032,0.002 0.0641,0.003 0.0961,0.005 0.032,0.002 0.0641,0.003 0.0961,0.005 0.032,0.001 0.0641,0.003 0.0961,0.004 0.032,0.002 0.0641,0.003 0.0961,0.004 0.032,0.002 0.0641,0.003 0.0961,0.004 0.032,0.001 0.0641,0.003 0.0961,0.004 0.032,10e-4 0.0641,0.003 0.0961,0.004 0.032,10e-4 0.0641,0.003 0.0961,0.004 0.032,0.001 0.0641,0.003 0.0961,0.004 0.032,10e-4 0.0641,0.003 0.0961,0.004 0.032,10e-4 0.0641,0.003 0.0961,0.004 0.032,0.001 0.0641,0.003 0.0961,0.004 0.032,10e-4 0.0641,0.003 0.0961,0.004 0.032,10e-4 0.0641,0.003 0.0961,0.004 0.032,0.001 0.0641,0.003 0.0961,0.004 0.032,10e-4 0.0641,0.003 0.0961,0.004 0.032,10e-4 0.0641,0.003 0.0961,0.004 0.032,0.001 0.0641,0.003 0.0961,0.004 0.032,10e-4 0.0641,0.003 0.0961,0.004 0.032,10e-4 0.0641,0.003 0.0961,0.004 0.032,0.001 0.0641,0.003 0.0961,0.004 0.032,10e-4 0.0641,0.003 0.0961,0.004 0.032,10e-4 0.0641,0.003 0.0961,0.004 0.032,0.001 0.0641,0.003 0.0961,0.004 0.032,10e-4 0.0641,0.003 0.0961,0.004 0.032,10e-4 0.0641,0.003 0.0961,0.004 0.032,0.001 0.0641,0.003 0.0961,0.004 0.032,10e-4 0.0641,0.003 0.0961,0.004 0.032,10e-4 0.0641,0.003 0.0961,0.004 0.032,0.001 0.0641,0.003 0.0961,0.004 0.032,10e-4 0.0641,0.003 0.0961,0.004 0.032,10e-4 0.0641,0.003 0.0961,0.004 0.032,0.001 0.0641,0.003 0.0961,0.004 0.032,10e-4 0.0641,0.003 0.0961,0.004 0.032,10e-4 0.0641,0.003 0.0961,0.004 0.032,0.001 0.0641,0.003 0.0961,0.004 0.032,10e-4 0.0641,0.003 0.0961,0.004 0.032,10e-4 0.0641,0.003 0.0961,0.004 0.032,0.001 0.0641,0.003 0.0961,0.004 0.032,10e-4 0.0641,0.003 0.0961,0.004 0.032,10e-4 0.0641,0.003 0.0961,0.004 0.032,0.001 0.0641,0.003 0.0961,0.004 0.032,10e-4 0.0641,0.003 0.0961,0.004 0.032,10e-4 0.0641,0.003 0.0961,0.004 0.032,0.001 0.0641,0.003 0.0961,0.004 0.032,10e-4 0.0641,0.003 0.0961,0.004 0.032,10e-4 0.0641,0.003 0.0961,0.004 0.032,0.001 0.0641,0.003 0.0961,0.004 0.032,10e-4 0.0641,0.003 0.0961,0.004 0.032,10e-4 0.0641,0.003 0.0961,0.004 0.032,0.001 0.0641,0.003 0.0961,0.004 0.032,10e-4 0.0641,0.003 0.0961,0.004 0.032,10e-4 0.0641,0.003 0.0961,0.004 0.032,0.001 0.0641,0.003 0.0961,0.004 0.032,10e-4 0.0641,0.003 0.0961,0.004 0.032,10e-4 0.0641,0.003 0.0961,0.004 0.032,0.001 0.0641,0.003 0.0961,0.004 0.032,10e-4 0.0641,0.003 0.0961,0.004 0.032,10e-4 0.0641,0.003 0.0961,0.004 0.032,0.001 0.0641,0.003 0.0961,0.004 0.032,10e-4 0.0641,0.003 0.0961,0.004 0.032,10e-4 0.0641,0.003 0.0961,0.004 0.032,0.001 0.0641,0.003 0.0961,0.004 0.032,10e-4 0.0641,0.003 0.0961,0.004 0.032,10e-4 0.0641,0.003 0.0961,0.004 0.032,0.001 0.0641,0.003 0.0961,0.004 0.032,10e-4 0.0641,0.003 0.0961,0.004 0.032,10e-4 0.0641,0.003 0.0961,0.004 0.032,0.001 0.0641,0.003 0.0961,0.004 0.032,10e-4 0.0641,0.003 0.0961,0.004 0.032,10e-4 0.0641,0.003 0.0961,0.004 0.032,0.001 0.0641,0.003 0.0961,0.004 0.032,10e-4 0.0641,0.003 0.0961,0.004 0.032,10e-4 0.0641,0.003 0.0961,0.004 0.032,0.001 0.0641,0.003 0.0961,0.004 0.032,10e-4 0.0641,0.003 0.0961,0.004 0.032,10e-4 0.0641,0.003 0.0961,0.004 0.032,0.001 0.0641,0.003 0.0961,0.004 0.032,10e-4 0.0641,0.003 0.0961,0.004 0.032,10e-4 0.0641,0.003 0.0961,0.004"
       style="fill:#ffffff;stroke:#000000;stroke-width:1;stroke-miterlimit:4;stroke-dasharray:none;stroke-dashoffset:0" />
    <text
       xml:space="preserve"
       x="570.59662"
       y="476.59064"
       id="text3943"
       style="font-size:18px;font-style:normal;font-variant:normal;font-weight:500;font-stretch:normal;text-align:start;line-height:125%;writing-mode:lr-tb;text-anchor:start;font-family:jsMath-cmr10;-inkscape-font-specification:jsMath-cmr10 Medium"
       sodipodi:linespacing="125%"><tspan
         sodipodi:role="line"
         id="tspan3945"
         x="570.59662"
         y="476.59064">s</tspan></text>
    <text
       xml:space="preserve"
       style="font-size:65.00091553%;font-style:normal;font-variant:normal;font-weight:500;font-stretch:normal;line-height:125%;letter-spacing:0px;word-spacing:0px;baseline-shift:sub;fill:#000000;fill-opacity:1;stroke:none;font-family:jsMath-cmr10;-inkscape-font-specification:jsMath-cmr10 Medium"
       x="577.7395"
       y="475.51923"
       id="text3947"
       sodipodi:linespacing="125%"><tspan
         sodipodi:role="line"
         id="tspan3949"
         x="577.7395"
         y="475.51923">1</tspan></text>
    <text
       xml:space="preserve"
       style="font-size:18px;font-style:normal;font-variant:normal;font-weight:500;font-stretch:normal;line-height:125%;letter-spacing:0px;word-spacing:0px;fill:#000000;fill-opacity:1;stroke:none;font-family:jsMath-cmr10;-inkscape-font-specification:jsMath-cmr10 Medium"
       x="460.59665"
       y="366.23352"
       id="text3955"
       sodipodi:linespacing="125%"><tspan
         sodipodi:role="line"
         id="tspan3957"
         x="460.59665"
         y="366.23352">s</tspan></text>
    <text
       xml:space="preserve"
       style="font-size:65.00091553%;font-style:normal;font-variant:normal;font-weight:500;font-stretch:normal;line-height:125%;letter-spacing:0px;word-spacing:0px;baseline-shift:sub;fill:#000000;fill-opacity:1;stroke:none;font-family:jsMath-cmr10;-inkscape-font-specification:jsMath-cmr10 Medium"
       x="467.7395"
       y="364.09067"
       id="text3959"
       sodipodi:linespacing="125%"><tspan
         sodipodi:role="line"
         id="tspan3961"
         x="467.7395"
         y="364.09067">2</tspan></text>
    <text
       sodipodi:linespacing="125%"
       id="text4617-9"
       y="359.80762"
       x="16.853992"
       style="font-size:25px;font-style:normal;font-variant:normal;font-weight:normal;font-stretch:normal;line-height:125%;letter-spacing:0px;word-spacing:0px;fill:#000000;fill-opacity:1;stroke:none;font-family:HelveticaNeue;-inkscape-font-specification:HelveticaNeue"
       xml:space="preserve"><tspan
         y="359.80762"
         x="16.853992"
         id="tspan4619-1"
         sodipodi:role="line">A</tspan></text>
    <text
       xml:space="preserve"
       style="font-size:25px;font-style:normal;font-variant:normal;font-weight:normal;font-stretch:normal;line-height:125%;letter-spacing:0px;word-spacing:0px;fill:#000000;fill-opacity:1;stroke:none;font-family:HelveticaNeue;-inkscape-font-specification:HelveticaNeue"
       x="339.72391"
       y="359.80762"
       id="text9054"
       sodipodi:linespacing="125%"><tspan
         sodipodi:role="line"
         id="tspan9056"
         x="339.72391"
         y="359.80762">B</tspan></text>
    <path
       style="fill:#ffffff;stroke:#000000;stroke-width:1;stroke-miterlimit:4;stroke-dasharray:none;stroke-dashoffset:0"
       d="M 40.267239 474.792495 l 200.71428 0 M 140.624379 574.97107 l 0 -200.35715 M 140.624379 474.792495 C 140.624379 474.792495 140.624379 474.792495 140.624379 474.792495 C 140.624379 474.792495 140.624379 474.792495 140.624379 474.792495 C 140.624379 474.792495 140.624379 474.792495 140.624379 474.792495 C 140.624379 474.792495 140.624379 474.792495 140.624379 474.792495 C 140.624379 474.792495 140.624379 474.792495 140.624379 474.792495 C 140.624379 474.792495 140.624379 474.792495 140.624379 474.792495 C 140.624379 474.792495 140.624379 474.792495 140.624379 474.792495 C 140.624379 474.792495 140.624379 474.792495 140.624379 474.792495 C 140.624379 474.792495 140.624379 474.792495 140.624379 474.792495 C 140.624379 474.792495 140.624379 474.792495 140.624379 474.792495 C 140.624379 474.792495 140.624379 474.792495 140.624379 474.792495 C 140.624379 474.792495 140.624379 474.792495 140.624379 474.792495 C 140.624379 474.792495 140.624379 474.792495 140.624379 474.792495 C 140.624379 474.792495 140.624379 474.792495 140.624379 474.792495 C 140.624379 474.792495 140.624379 474.792495 140.624379 474.792495 C 140.624379 474.792495 140.624379 474.792495 140.624379 474.792495 C 140.624379 474.792495 140.624379 474.792495 140.624379 474.792495 C 140.624379 474.792495 140.624379 474.792495 140.624379 474.792495 C 140.624379 474.792495 140.624379 474.792495 140.624379 474.792495 C 140.624379 474.792495 140.624379 474.792495 140.624379 474.792495 C 140.624379 474.792495 140.624379 474.792495 140.624379 474.792495 C 140.624379 474.792495 140.624379 474.792495 140.624379 474.792495 C 140.624379 474.792495 140.624379 474.792495 140.624379 474.792495 C 140.624379 474.792495 140.624379 474.792495 140.624379 474.792495 C 140.624379 474.792495 140.624379 474.792495 140.624379 474.792495 C 140.624379 474.792495 140.624379 474.792495 140.624379 474.792495 C 140.624379 474.792495 140.624379 474.792495 140.624379 474.792495 C 140.624379 474.792495 140.624379 474.792495 140.624379 474.792495 C 140.624379 474.792495 140.624379 474.792495 140.624379 474.792495"
       title="0 0"
       id="path4069" />
    <path
       inkscape:connector-curvature="0"
       id="path4108"
       d="m 141.14653,424.67746 0,-49.50641 49.68281,0 49.68281,0 0,49.50641 0,49.50642 -49.68281,0 -49.68281,0 0,-49.50642 z"
       style="fill:#000080;fill-opacity:1;stroke:none" />
    <path
       id="path4147"
       title="0 0"
       d="M 364.16806 474.09066 l 200.0 0 M 464.16806 574.4478 l 0 -200.71428 M 464.16806 474.09066 C 464.16806 474.09066 464.16806 474.09066 464.16806 474.09066 C 464.16806 474.09066 464.16806 474.09066 464.16806 474.09066 C 464.16806 474.09066 464.16806 474.09066 464.16806 474.09066 C 464.16806 474.09066 464.16806 474.09066 464.16806 474.09066 C 464.16806 474.09066 464.16806 474.09066 464.16806 474.09066 C 464.16806 474.09066 464.16806 474.09066 464.16806 474.09066 C 464.16806 474.09066 464.16806 474.09066 464.16806 474.09066 C 464.16806 474.09066 464.16806 474.09066 464.16806 474.09066 C 464.16806 474.09066 464.16806 474.09066 464.16806 474.09066 C 464.16806 474.09066 464.16806 474.09066 464.16806 474.09066 C 464.16806 474.09066 464.16806 474.09066 464.16806 474.09066 C 464.16806 474.09066 464.16806 474.09066 464.16806 474.09066 C 464.16806 474.09066 464.16806 474.09066 464.16806 474.09066 C 464.16806 474.09066 464.16806 474.09066 464.16806 474.09066 C 464.16806 474.09066 464.16806 474.09066 464.16806 474.09066 C 464.16806 474.09066 464.16806 474.09066 464.16806 474.09066 C 464.16806 474.09066 464.16806 474.09066 464.16806 474.09066 C 464.16806 474.09066 464.16806 474.09066 464.16806 474.09066 C 464.16806 474.09066 464.16806 474.09066 464.16806 474.09066 C 464.16806 474.09066 464.16806 474.09066 464.16806 474.09066 C 464.16806 474.09066 464.16806 474.09066 464.16806 474.09066 C 464.16806 474.09066 464.16806 474.09066 464.16806 474.09066 C 464.16806 474.09066 464.16806 474.09066 464.16806 474.09066 C 464.16806 474.09066 464.16806 474.09066 464.16806 474.09066 C 464.16806 474.09066 464.16806 474.09066 464.16806 474.09066 C 464.16806 474.09066 464.16806 474.09066 464.16806 474.09066 C 464.16806 474.09066 464.16806 474.09066 464.16806 474.09066 C 464.16806 474.09066 464.16806 474.09066 464.16806 474.09066 C 464.16806 474.09066 464.16806 474.09066 464.16806 474.09066"
       style="fill:#ffffff;stroke:#000000;stroke-width:1;stroke-miterlimit:4;stroke-dasharray:none;stroke-dashoffset:0" />
    <path
       style="fill:#000080;fill-opacity:1;stroke:none"
       d="M 546.67718,131.90346 C 501.46069,129.77542 483.01892,125.9 473.39481,116.50363 463.35032,106.69682 459.53248,88.707916 457.34342,40.872595 l -0.17008,-3.716764 47.22976,0 47.22977,0 0,47.529528 0,47.529531 -1.01367,-0.0868 c -0.55751,-0.0477 -2.33142,-0.14882 -3.94202,-0.22462 z"
       id="path4955"
       inkscape:connector-curvature="0"
       transform="translate(11.720992,337.24162)" />
  </g>
</svg>
