<?xml version="1.0" encoding="UTF-8" standalone="no"?>
<!-- Created with Inkscape (http://www.inkscape.org/) -->

<svg
   xmlns:dc="http://purl.org/dc/elements/1.1/"
   xmlns:cc="http://creativecommons.org/ns#"
   xmlns:rdf="http://www.w3.org/1999/02/22-rdf-syntax-ns#"
   xmlns:svg="http://www.w3.org/2000/svg"
   xmlns="http://www.w3.org/2000/svg"
   xmlns:sodipodi="http://sodipodi.sourceforge.net/DTD/sodipodi-0.dtd"
   xmlns:inkscape="http://www.inkscape.org/namespaces/inkscape"
   width="227.42758"
   height="226.77695"
   id="svg3158"
   version="1.1"
   inkscape:version="0.48.3.1 r9886"
   sodipodi:docname="region2x2.svg">
  <defs
     id="defs3160" />
  <sodipodi:namedview
     id="base"
     pagecolor="#ffffff"
     bordercolor="#666666"
     borderopacity="1.0"
     inkscape:pageopacity="0.0"
     inkscape:pageshadow="2"
     inkscape:zoom="1.0406702"
     inkscape:cx="113.71379"
     inkscape:cy="113.38847"
     inkscape:document-units="px"
     inkscape:current-layer="layer1"
     showgrid="false"
     fit-margin-top="5"
     fit-margin-left="5"
     fit-margin-right="5"
     fit-margin-bottom="5"
     inkscape:window-width="472"
     inkscape:window-height="383"
     inkscape:window-x="98"
     inkscape:window-y="197"
     inkscape:window-maximized="0" />
  <metadata
     id="metadata3163">
    <rdf:RDF>
      <cc:Work
         rdf:about="">
        <dc:format>image/svg+xml</dc:format>
        <dc:type
           rdf:resource="http://purl.org/dc/dcmitype/StillImage" />
      </cc:Work>
    </rdf:RDF>
  </metadata>
  <g
     inkscape:label="Layer 1"
     inkscape:groupmode="layer"
     id="layer1"
     transform="translate(-261.28125,-418.97305)">
    <rect
       y="440.87466"
       x="267.56094"
       height="200.35715"
       width="200.71428"
       id="rect3985"
       style="fill:#ffffff;stroke:#000000;stroke-width:1;stroke-miterlimit:4;stroke-dasharray:none;stroke-dashoffset:0" />
    <text
       sodipodi:linespacing="125%"
       style="font-size:18px;font-style:normal;font-variant:normal;font-weight:500;font-stretch:normal;text-align:start;line-height:125%;writing-mode:lr-tb;text-anchor:start;font-family:jsMath-cmr10;-inkscape-font-specification:jsMath-cmr10 Medium"
       id="text3943-8"
       y="542.32806"
       x="474.18027"
       xml:space="preserve"><tspan
         y="542.32806"
         x="474.18027"
         id="tspan3945-0"
         sodipodi:role="line">s</tspan></text>
    <text
       sodipodi:linespacing="125%"
       id="text3947-9"
       y="541.25665"
       x="481.32309"
       style="font-size:65.00091553%;font-style:normal;font-variant:normal;font-weight:500;font-stretch:normal;line-height:125%;letter-spacing:0px;word-spacing:0px;baseline-shift:sub;fill:#000000;fill-opacity:1;stroke:none;font-family:jsMath-cmr10;-inkscape-font-specification:jsMath-cmr10 Medium"
       xml:space="preserve"><tspan
         y="541.25665"
         x="481.32309"
         id="tspan3949-8"
         sodipodi:role="line">1</tspan></text>
    <text
       sodipodi:linespacing="125%"
       id="text3955-3"
       y="432.14951"
       x="360.86066"
       style="font-size:18px;font-style:normal;font-variant:normal;font-weight:500;font-stretch:normal;line-height:125%;letter-spacing:0px;word-spacing:0px;fill:#000000;fill-opacity:1;stroke:none;font-family:jsMath-cmr10;-inkscape-font-specification:jsMath-cmr10 Medium"
       xml:space="preserve"><tspan
         y="432.14951"
         x="360.86066"
         id="tspan3957-5"
         sodipodi:role="line">s</tspan></text>
    <text
       sodipodi:linespacing="125%"
       id="text3959-5"
       y="430.00665"
       x="368.00351"
       style="font-size:65.00091553%;font-style:normal;font-variant:normal;font-weight:500;font-stretch:normal;line-height:125%;letter-spacing:0px;word-spacing:0px;baseline-shift:sub;fill:#000000;fill-opacity:1;stroke:none;font-family:jsMath-cmr10;-inkscape-font-specification:jsMath-cmr10 Medium"
       xml:space="preserve"><tspan
         y="430.00665"
         x="368.00351"
         id="tspan3961-5"
         sodipodi:role="line">2</tspan></text>
    <path
       inkscape:connector-curvature="0"
       id="path4174"
       title="x**2"
       d="m 267.56093,541.05323 200.71428,0 m -100.35714,100.17858 0,-200.35715 m -100.35714,0 c 0.67581,1.34919 1.35161,2.68477 2.02742,4.00673 0.6758,1.32197 1.35161,2.63026 2.02741,3.92497 0.67581,1.2947 1.35162,2.57574 2.02742,3.84319 0.67581,1.26745 1.35161,2.52123 2.02742,3.76143 0.6758,1.24019 1.35161,2.46671 2.02741,3.67965 0.67581,1.21294 1.35162,2.4122 2.02742,3.59788 0.67581,1.18568 1.35161,2.35769 2.02742,3.51612 0.6758,1.15842 1.35161,2.30317 2.02742,3.43434 0.6758,1.13117 1.35161,2.24866 2.02741,3.35257 0.67581,1.10391 1.35161,2.19415 2.02742,3.27081 0.67581,1.07665 1.35161,2.13963 2.02742,3.18903 0.6758,1.0494 1.35161,2.08512 2.02741,3.10726 0.67581,1.02214 1.35161,2.03061 2.02742,3.0255 0.67581,0.99488 1.35161,1.97609 2.02742,2.94372 0.6758,0.96763 1.35161,1.92158 2.02741,2.86195 0.67581,0.94037 1.35162,1.86707 2.02742,2.78019 0.67581,0.91311 1.35161,1.81255 2.02742,2.69841 0.6758,0.88586 1.35161,1.75804 2.02742,2.61664 0.6758,0.8586 1.35161,1.70353 2.02741,2.53487 0.67581,0.83135 1.35161,1.64902 2.02742,2.45311 0.67581,0.80408 1.35161,1.5945 2.02742,2.37133 0.6758,0.77683 1.35161,1.53999 2.02741,2.28956 0.67581,0.74957 1.35161,1.48548 2.02742,2.20779 0.67581,0.72232 1.35161,1.43097 2.02742,2.12603 0.6758,0.69506 1.35161,1.37645 2.02741,2.04425 0.67581,0.6678 1.35162,1.32193 2.02742,1.96248 0.67581,0.64055 1.35161,1.26742 2.02742,1.88071 0.6758,0.61329 1.35161,1.21291 2.02742,1.79894 0.6758,0.58604 1.35161,1.1584 2.02741,1.71718 0.67581,0.55877 1.35161,1.10388 2.02742,1.6354 0.6758,0.53152 1.35161,1.04937 2.02742,1.55363 0.6758,0.50426 1.35161,0.99485 2.02741,1.47186 0.67581,0.47701 1.35161,0.94034 2.02742,1.39009 0.67581,0.44975 1.35161,0.88583 2.02742,1.30832 0.6758,0.4225 1.35161,0.83132 2.02741,1.22655 0.67581,0.39524 1.35162,0.77681 2.02742,1.14479 0.67581,0.36798 1.35161,0.72228 2.02742,1.06301 0.6758,0.34072 1.35161,0.66777 2.02741,0.98124 0.67581,0.31346 1.35162,0.61326 2.02742,0.89947 0.67581,0.28621 1.35161,0.55875 2.02742,0.8177 0.6758,0.25895 1.35161,0.50424 2.02742,0.73593 0.6758,0.2317 1.35161,0.44972 2.02741,0.65416 0.67581,0.20444 1.35161,0.39521 2.02742,0.57239 0.67581,0.17718 1.35161,0.3407 2.02742,0.49062 0.6758,0.14993 1.35161,0.28618 2.02741,0.40885 0.67581,0.12267 1.35161,0.23167 2.02742,0.32708 0.67581,0.0954 1.35161,0.17716 2.02742,0.24531 0.6758,0.0682 1.35161,0.12264 2.02741,0.16354 0.67581,0.0409 1.35162,0.0681 2.02742,0.0818 0.67581,0.0136 1.35161,0.0136 2.02742,0 0.6758,-0.0136 1.35161,-0.0409 2.02742,-0.0818 0.6758,-0.0409 1.35161,-0.0954 2.02741,-0.16354 0.67581,-0.0681 1.35161,-0.14992 2.02742,-0.24531 0.67581,-0.0954 1.35161,-0.20444 2.02742,-0.32708 0.6758,-0.12264 1.35161,-0.25895 2.02741,-0.40885 0.67581,-0.1499 1.35161,-0.31346 2.02742,-0.49062 0.67581,-0.17715 1.35161,-0.36798 2.02742,-0.57239 0.6758,-0.20441 1.35161,-0.42249 2.02741,-0.65416 0.67581,-0.23167 1.35162,-0.47701 2.02742,-0.73593 0.67581,-0.25893 1.35161,-0.53152 2.02742,-0.8177 0.6758,-0.28618 1.35161,-0.58603 2.02742,-0.89947 0.6758,-0.31344 1.35161,-0.64055 2.02741,-0.98124 0.67581,-0.3407 1.35161,-0.69506 2.02742,-1.06301 0.6758,-0.36796 1.35161,-0.74958 2.02742,-1.14479 0.6758,-0.3952 1.35161,-0.80408 2.02741,-1.22655 0.67581,-0.42246 1.35161,-0.8586 2.02742,-1.30832 0.67581,-0.44972 1.35161,-0.91311 2.02742,-1.39009 0.6758,-0.47698 1.35161,-0.96763 2.02741,-1.47186 0.67581,-0.50424 1.35162,-1.02214 2.02742,-1.55363 0.67581,-0.53149 1.35161,-1.07666 2.02742,-1.6354 0.6758,-0.55875 1.35161,-1.13117 2.02741,-1.71718 0.67581,-0.586 1.35162,-1.18568 2.02742,-1.79894 0.67581,-0.61326 1.35161,-1.24019 2.02742,-1.88071 0.6758,-0.64052 1.35161,-1.29471 2.02742,-1.96248 0.6758,-0.66778 1.35161,-1.34922 2.02741,-2.04425 0.67581,-0.69504 1.35161,-1.40374 2.02742,-2.12603 0.67581,-0.72228 1.35161,-1.45824 2.02742,-2.20779 0.6758,-0.74954 1.35161,-1.51276 2.02741,-2.28956 0.67581,-0.7768 1.35161,-1.56727 2.02742,-2.37133 0.67581,-0.80406 1.35161,-1.62179 2.02742,-2.45311 0.6758,-0.83131 1.35161,-1.6763 2.02741,-2.53487 0.67581,-0.85857 1.35162,-1.73081 2.02742,-2.61664 0.67581,-0.88583 1.35161,-1.78533 2.02742,-2.69841 0.6758,-0.91309 1.35161,-1.83984 2.02742,-2.78019 0.6758,-0.94034 1.35161,-1.89435 2.02741,-2.86195 0.67581,-0.9676 1.35161,-1.94887 2.02742,-2.94372 0.67581,-0.99486 1.35161,-2.00338 2.02742,-3.0255 0.6758,-1.02211 1.35161,-2.05789 2.02741,-3.10726 0.67581,-1.04937 1.35161,-2.11241 2.02742,-3.18903 0.67581,-1.07663 1.35161,-2.16692 2.02742,-3.27081 0.6758,-1.10388 1.35161,-2.22143 2.02741,-3.35257 0.67581,-1.13114 1.35162,-2.27595 2.02742,-3.43434 0.67581,-1.1584 1.35161,-2.33046 2.02742,-3.51612 0.6758,-1.18565 1.35161,-2.38497 2.02742,-3.59788 0.6758,-1.21291 1.35161,-2.43949 2.02741,-3.67965 0.67581,-1.24017 1.35161,-2.49401 2.02742,-3.76143 0.6758,-1.26742 1.35161,-2.54851 2.02742,-3.84319 0.6758,-1.29468 1.35161,-2.60303 2.02741,-3.92497 0.67581,-1.32193 1.35161,-2.65754 2.02742,-4.00673"
       style="fill:#ffffff;stroke:#000000;stroke-width:1;stroke-miterlimit:4;stroke-dasharray:none;stroke-dashoffset:0" />
    <path
       style="fill:#000080;stroke:#000000;stroke-width:0.35714287;stroke-miterlimit:4;stroke-dasharray:none;stroke-dashoffset:0"
       d="m 368.51341,490.59555 0,-49.64286 49.49522,0 49.49522,0 -3.1136,5.98214 c -25.38479,48.77166 -50.49406,78.35112 -75.51969,88.96443 -5.9279,2.514 -13.6157,4.33914 -18.27722,4.33914 l -2.07993,0 0,-49.64285 z"
       id="path4212"
       inkscape:connector-curvature="0" />
    <path
       style="fill:#008000;stroke:#000000;stroke-width:0.35714287;stroke-miterlimit:4;stroke-dasharray:none;stroke-dashoffset:0"
       d="m 385.02352,538.8184 c 8.44547,-2.8419 17.56591,-8.19059 25.81132,-15.13709 3.42549,-2.88586 11.0343,-10.44221 14.6151,-14.51434 13.42501,-15.26703 24.54922,-32.28121 40.16324,-61.42857 l 1.81753,-3.39285 0.006,47.94642 0.006,47.94643 -43.30357,-0.005 -43.30357,-0.005 4.18868,-1.40949 z"
       id="path4214"
       inkscape:connector-curvature="0" />
    <path
       style="fill:#ff0000;stroke:#000000;stroke-width:0.35714287;stroke-miterlimit:4;stroke-dasharray:none;stroke-dashoffset:0"
       d="m 268.15627,591.13126 0,-49.46429 49.46429,0 49.46428,0 0,49.46429 0,49.46429 -49.46428,0 -49.46429,0 0,-49.46429 z"
       id="path4216"
       inkscape:connector-curvature="0" />
    <path
       style="fill:#ff0000;stroke:#000000;stroke-width:0.35714287;stroke-miterlimit:4;stroke-dasharray:none;stroke-dashoffset:0"
       d="m 368.51341,591.13126 0,-49.46429 49.46429,0 49.46428,0 0,49.46429 0,49.46429 -49.46428,0 -49.46429,0 0,-49.46429 z"
       id="path4218"
       inkscape:connector-curvature="0" />
    <path
       style="fill:#ffff00;stroke:#000000;stroke-width:0.35714287;stroke-miterlimit:4;stroke-dasharray:none;stroke-dashoffset:0"
       d="m 268.15627,492.22899 c 0,-26.55059 0.0616,-48.20684 0.13691,-48.125 0.0753,0.0818 1.79058,3.28274 3.81175,7.1131 20.46367,38.78124 41.2332,65.38897 61.73223,79.08482 6.44172,4.30386 12.75764,7.32357 19.47324,9.31036 l 2.88158,0.85251 -44.01785,0.019 -44.01786,0.019 0,-48.27381 z"
       id="path4220"
       inkscape:connector-curvature="0" />
    <path
       style="fill:#ff00ff;stroke:#000000;stroke-width:0.35714287;stroke-miterlimit:4;stroke-dasharray:none;stroke-dashoffset:0"
       d="m 363.15942,540.11368 c -9.18489,-0.88376 -19.14019,-4.72514 -28.39601,-10.95696 -5.74376,-3.8672 -9.44251,-6.891 -14.92191,-12.19892 -16.29207,-15.78222 -31.66736,-38.03628 -48.44283,-70.11571 l -2.94152,-5.625 49.31385,0 49.31384,0 0,49.64285 c 0,39.50215 -0.0912,49.63292 -0.44643,49.5942 -0.24553,-0.0268 -1.81108,-0.17998 -3.47899,-0.34046 z"
       id="path4222"
       inkscape:connector-curvature="0" />
  </g>
</svg>
